<svg width="45" height="45" viewBox="0 0 45 45" fill="none" xmlns="http://www.w3.org/2000/svg">
<rect x="0.343628" y="0.75" width="44" height="44" rx="22" fill="#F7ECFC"/>
<g clip-path="url(#clip0_2596_1230)">
<path d="M30.3436 32.75H14.3436C14.0784 32.75 13.8241 32.6446 13.6365 32.4571C13.449 32.2696 13.3436 32.0152 13.3436 31.75V13.75C13.3436 13.4848 13.449 13.2304 13.6365 13.0429C13.8241 12.8554 14.0784 12.75 14.3436 12.75H30.3436C30.6088 12.75 30.8632 12.8554 31.0507 13.0429C31.2383 13.2304 31.3436 13.4848 31.3436 13.75V31.75C31.3436 32.0152 31.2383 32.2696 31.0507 32.4571C30.8632 32.6446 30.6088 32.75 30.3436 32.75ZM29.3436 30.75V14.75H15.3436V30.75H29.3436ZM18.3436 19.75H26.3436V21.75H18.3436V19.75ZM18.3436 23.75H26.3436V25.75H18.3436V23.75Z" fill="#AA3CDD"/>
</g>
<defs>
<clipPath id="clip0_2596_1230">
<rect width="24" height="24" fill="white" transform="translate(10.3436 10.75)"/>
</clipPath>
</defs>
</svg>
