<svg width="70" height="70" viewBox="0 0 70 70" fill="none" xmlns="http://www.w3.org/2000/svg">
<rect width="70" height="70" rx="35" fill="#F7ECFC"/>
<g clip-path="url(#clip0_2700_3372)">
<path d="M17.5 49H52.5V52.5H17.5V49ZM21 35H24.5V47.25H21V35ZM29.75 35H33.25V47.25H29.75V35ZM36.75 35H40.25V47.25H36.75V35ZM45.5 35H49V47.25H45.5V35ZM17.5 26.25L35 17.5L52.5 26.25V33.25H17.5V26.25ZM21 28.413V29.75H49V28.413L35 21.413L21 28.413ZM35 28C34.5359 28 34.0908 27.8156 33.7626 27.4874C33.4344 27.1592 33.25 26.7141 33.25 26.25C33.25 25.7859 33.4344 25.3408 33.7626 25.0126C34.0908 24.6844 34.5359 24.5 35 24.5C35.4641 24.5 35.9092 24.6844 36.2374 25.0126C36.5656 25.3408 36.75 25.7859 36.75 26.25C36.75 26.7141 36.5656 27.1592 36.2374 27.4874C35.9092 27.8156 35.4641 28 35 28Z" fill="#500C6A"/>
</g>
<defs>
<clipPath id="clip0_2700_3372">
<rect width="42" height="42" fill="white" transform="translate(14 14)"/>
</clipPath>
</defs>
</svg>
