<svg width="535" height="496" viewBox="0 0 535 496" fill="none" xmlns="http://www.w3.org/2000/svg">
<rect x="88.4404" y="0.348755" width="456" height="384" rx="24" transform="rotate(12.0728 88.4404 0.348755)" fill="url(#paint0_linear_2454_1723)"/>
<rect x="53.9087" y="43.8165" width="456" height="384" rx="24" transform="rotate(7.9919 53.9087 43.8165)" fill="url(#paint1_linear_2454_1723)"/>
<g clip-path="url(#clip0_2454_1723)">
<rect y="71.6512" width="456" height="424" rx="24" fill="#FAFAFA"/>
<path d="M35.36 129.651H32L40.372 110.891H44.628L53 129.651H49.584L47.428 124.779H37.516L35.36 129.651ZM41.268 116.351L38.72 122.063H46.224L43.676 116.351L42.584 113.691H42.36L41.268 116.351ZM60.196 129.931C56.276 129.931 54.372 127.327 54.372 124.107V115.735H57.368V123.295C57.368 125.899 58.572 127.215 61.512 127.215C64.592 127.215 66.02 125.647 66.02 122.623V115.735H69.016V129.651H66.244V125.339H66.076C65.628 127.691 63.78 129.931 60.196 129.931ZM77.8113 128.391C73.6673 128.391 71.2033 125.787 71.2033 121.923C71.2033 118.059 73.7793 115.455 78.0073 115.455C80.9193 115.455 83.1033 116.771 83.6073 119.207H83.7753V115.735H86.5473V128.027C86.5473 132.703 83.6353 134.691 79.0713 134.691C74.9553 134.691 72.0993 132.759 72.0993 129.399H75.0953C75.0953 131.415 76.2713 132.171 79.2393 132.171C82.4033 132.171 83.5513 131.303 83.5513 128.195V124.779H83.3553C82.8513 126.879 80.9753 128.391 77.8113 128.391ZM74.2553 121.923C74.2553 124.779 75.9353 125.787 78.7913 125.787C81.8713 125.787 83.5513 124.499 83.5513 122.035V121.643C83.5513 119.291 81.8153 118.087 78.8753 118.087C75.9633 118.087 74.2553 119.067 74.2553 121.923ZM95.1413 129.931C91.2213 129.931 89.3173 127.327 89.3173 124.107V115.735H92.3133V123.295C92.3133 125.899 93.5173 127.215 96.4573 127.215C99.5373 127.215 100.965 125.647 100.965 122.623V115.735H103.961V129.651H101.189V125.339H101.021C100.573 127.691 98.7253 129.931 95.1413 129.931ZM113.289 129.931C108.809 129.931 106.261 128.167 106.261 124.947V124.863H109.285V125.087C109.285 126.907 110.377 127.495 113.289 127.495C116.005 127.495 116.817 126.935 116.817 125.703C116.817 124.555 116.145 124.191 114.157 123.911L110.349 123.407C107.717 123.071 106.121 121.951 106.121 119.627C106.121 117.191 108.333 115.455 112.617 115.455C116.873 115.455 119.449 117.163 119.449 120.467V120.551H116.453V120.383C116.453 118.731 115.613 117.863 112.533 117.863C109.985 117.863 109.089 118.423 109.089 119.739C109.089 120.831 109.649 121.223 111.749 121.503L114.969 121.951C118.273 122.371 119.785 123.491 119.785 125.787C119.785 128.391 117.209 129.931 113.289 129.931ZM131.094 129.651H127.902C124.906 129.651 123.058 128.335 123.058 124.947V118.255H120.706V115.735H123.058V112.683H126.054V115.735H131.094V118.255H126.054V124.779C126.054 126.487 126.838 126.935 128.574 126.935H131.094V129.651Z" fill="#030712"/>
<path d="M36.512 162.651H34.784V154.491H32.16V153.259H32.672C33.856 153.259 34.528 152.955 34.992 151.931H36.512V162.651ZM42.7045 162.811C39.5685 162.811 37.8725 161.579 37.8725 159.419V159.243H39.6325V159.419C39.6325 160.683 40.5925 161.243 42.7365 161.243C44.6565 161.243 45.5365 160.667 45.5365 159.163C45.5365 157.691 44.6885 157.131 42.7365 157.131C41.2005 157.131 40.3045 157.387 39.6965 157.931L39.5845 157.899V157.931L37.9845 157.819L38.5605 151.931H46.8325V153.483H40.0645L39.6805 156.987L39.8085 157.003C40.3525 156.411 41.6005 155.755 43.3765 155.755C45.8725 155.755 47.3445 156.955 47.3445 159.163C47.3445 161.387 45.7285 162.811 42.7045 162.811ZM53.5383 162.811C50.3063 162.811 48.3863 160.699 48.3863 157.291C48.3863 153.899 50.3063 151.771 53.5383 151.771C56.7703 151.771 58.6903 153.899 58.6903 157.291C58.6903 160.699 56.7703 162.811 53.5383 162.811ZM53.5383 161.147C55.8263 161.147 56.8503 159.963 56.8503 157.291C56.8503 154.619 55.8263 153.435 53.5383 153.435C51.2503 153.435 50.2103 154.619 50.2103 157.291C50.2103 159.963 51.2503 161.147 53.5383 161.147ZM64.4343 153.771H62.7063V151.931H64.4343V153.771ZM64.4343 162.651H62.7063V154.699H64.4343V162.651ZM67.7624 162.651H66.0344V154.699H67.6184V157.163H67.7304C67.9704 155.819 69.0264 154.539 71.0424 154.539C73.2504 154.539 74.3384 156.027 74.3384 157.867V162.651H72.6104V158.331C72.6104 156.843 71.9384 156.091 70.2904 156.091C68.5464 156.091 67.7624 156.987 67.7624 158.715V162.651ZM80.9821 162.651H78.8701L75.1581 154.699H77.0621L79.8941 160.971H80.0221L82.8541 154.699H84.7261L80.9821 162.651ZM89.6765 162.811C87.0365 162.811 85.2605 161.131 85.2605 158.683C85.2605 156.203 87.0365 154.539 89.6765 154.539C92.3325 154.539 94.1085 156.203 94.1085 158.683C94.1085 161.131 92.3325 162.811 89.6765 162.811ZM89.6765 161.275C91.6125 161.275 92.4125 160.363 92.4125 158.683C92.4125 156.987 91.6125 156.059 89.6765 156.059C87.7565 156.059 86.9565 156.987 86.9565 158.683C86.9565 160.363 87.7565 161.275 89.6765 161.275ZM97.0905 153.771H95.3625V151.931H97.0905V153.771ZM97.0905 162.651H95.3625V154.699H97.0905V162.651ZM102.707 162.811C100.083 162.811 98.3706 161.131 98.3706 158.683C98.3706 156.203 100.083 154.539 102.707 154.539C105.091 154.539 106.835 155.883 106.835 157.867V158.027H105.123V157.931C105.123 156.699 104.227 156.091 102.675 156.091C100.883 156.091 100.083 156.939 100.083 158.683C100.083 160.395 100.883 161.259 102.675 161.259C104.227 161.259 105.123 160.651 105.123 159.419V159.307H106.835V159.483C106.835 161.467 105.091 162.811 102.707 162.811ZM112.113 162.811C109.505 162.811 107.793 161.339 107.793 158.683C107.793 156.203 109.489 154.539 112.081 154.539C114.545 154.539 116.225 155.899 116.225 158.315C116.225 158.603 116.209 158.827 116.161 159.067H109.409C109.473 160.603 110.225 161.419 112.065 161.419C113.729 161.419 114.417 160.875 114.417 159.931V159.803H116.145V159.947C116.145 161.643 114.481 162.811 112.113 162.811ZM112.049 155.899C110.289 155.899 109.521 156.683 109.424 158.107H114.593V158.075C114.593 156.603 113.745 155.899 112.049 155.899ZM121.279 162.811C118.719 162.811 117.263 161.803 117.263 159.963V159.915H118.991V160.043C118.991 161.083 119.615 161.419 121.279 161.419C122.831 161.419 123.295 161.099 123.295 160.395C123.295 159.739 122.911 159.531 121.775 159.371L119.599 159.083C118.095 158.891 117.183 158.251 117.183 156.923C117.183 155.531 118.447 154.539 120.895 154.539C123.327 154.539 124.799 155.515 124.799 157.403V157.451H123.087V157.355C123.087 156.411 122.607 155.915 120.847 155.915C119.391 155.915 118.879 156.235 118.879 156.987C118.879 157.611 119.199 157.835 120.399 157.995L122.239 158.251C124.127 158.491 124.991 159.131 124.991 160.443C124.991 161.931 123.519 162.811 121.279 162.811Z" fill="#6B7280"/>
<path opacity="0.2" d="M19 340.023C5.50685 342.126 8.36 343.823 0 348.003V460.103H456V259.843C456 259.843 443.432 287.222 433.58 286.063C418.329 284.269 424.961 270.59 409.64 271.623C398.248 272.392 396.34 308.644 380 307.723C359.358 306.56 367.466 288.537 346.94 286.063C332.525 284.326 332.954 257.94 318.44 257.563C296.018 256.981 292.863 235.408 273.6 233.623C228.139 229.41 258 184.879 224.5 187.879C190 190.969 229.371 276.26 185.06 271.623C173.9 270.455 169.195 260.208 158.08 261.743C144.353 263.639 145.486 281.992 132.24 286.063C114.925 291.384 105.864 267.787 88.16 271.623C71.2009 275.298 72.0725 300.835 54.72 300.883C31.3516 300.948 42.0899 336.426 19 340.023Z" fill="url(#paint2_linear_2454_1723)"/>
<path d="M0 348.003C8.36 343.823 5.50685 342.126 19 340.023C42.0899 336.426 31.3516 300.948 54.72 300.883C72.0725 300.835 71.2009 275.298 88.16 271.623C105.864 267.787 114.925 291.384 132.24 286.063C145.486 281.992 144.353 263.639 158.08 261.743C169.195 260.208 173.9 270.455 185.06 271.623C229.371 276.26 191.5 190.379 224.2 188.463C256.9 186.547 228.139 229.41 273.6 233.623C292.863 235.408 296.018 256.981 318.44 257.563C332.954 257.94 332.525 284.326 346.94 286.063C367.466 288.537 359.358 306.56 380 307.723C396.34 308.644 398.248 272.392 409.64 271.623C424.961 270.59 418.329 284.269 433.58 286.063C443.432 287.222 456 259.843 456 259.843C465.333 244.098 490 222.434 514 261.743C538 301.052 556.333 279.879 562.5 264.379C572.833 239.298 598.067 187.879 617.5 211.379C636.933 234.879 629.5 272.623 655.5 272.623C674 272.623 690.5 247.879 701.5 208.379C712.5 168.879 740.5 129.879 782.5 255.379" stroke="url(#paint3_linear_2454_1723)" stroke-width="3.8" stroke-linecap="round"/>
<path opacity="0.5" d="M252.32 191.063H320.72V460.103H252.32V191.063Z" fill="url(#paint4_linear_2454_1723)"/>
<g filter="url(#filter0_d_2454_1723)">
<circle cx="286.52" cy="236.663" r="15.2" fill="#FAFAFA"/>
<circle cx="286.52" cy="236.663" r="11.02" stroke="url(#paint5_linear_2454_1723)" stroke-width="8.36"/>
</g>
<path d="M289.267 423.347C289.267 423.704 288.991 423.953 288.559 423.953L282.841 423.957C282.405 423.957 282.133 423.708 282.133 423.347C282.133 423.16 282.213 423.009 282.316 422.795L285.032 417.175C285.228 416.779 285.429 416.632 285.7 416.632C285.972 416.632 286.172 416.779 286.364 417.175L289.085 422.795C289.187 423.004 289.267 423.156 289.267 423.347Z" fill="white"/>
<path d="M289.267 371.667C289.267 372.024 288.991 372.273 288.559 372.273L282.841 372.277C282.405 372.277 282.133 372.028 282.133 371.667C282.133 371.48 282.213 371.329 282.316 371.115L285.032 365.495C285.228 365.099 285.429 364.952 285.7 364.952C285.972 364.952 286.172 365.099 286.364 365.495L289.085 371.115C289.187 371.324 289.267 371.476 289.267 371.667Z" fill="white"/>
<path d="M289.267 319.987C289.267 320.344 288.991 320.593 288.559 320.593L282.841 320.597C282.405 320.597 282.133 320.348 282.133 319.987C282.133 319.8 282.213 319.649 282.316 319.435L285.032 313.815C285.228 313.419 285.429 313.272 285.7 313.272C285.972 313.272 286.172 313.419 286.364 313.815L289.085 319.435C289.187 319.644 289.267 319.796 289.267 319.987Z" fill="white"/>
<path d="M289.267 397.507C289.267 397.864 288.991 398.113 288.559 398.113L282.841 398.117C282.405 398.117 282.133 397.868 282.133 397.507C282.133 397.32 282.213 397.169 282.316 396.955L285.032 391.335C285.228 390.939 285.429 390.792 285.7 390.792C285.972 390.792 286.172 390.939 286.364 391.335L289.085 396.955C289.187 397.164 289.267 397.316 289.267 397.507Z" fill="white"/>
<path d="M289.267 345.827C289.267 346.184 288.991 346.433 288.559 346.433L282.841 346.437C282.405 346.437 282.133 346.188 282.133 345.827C282.133 345.64 282.213 345.489 282.316 345.275L285.032 339.655C285.228 339.259 285.429 339.112 285.7 339.112C285.972 339.112 286.172 339.259 286.364 339.655L289.085 345.275C289.187 345.484 289.267 345.636 289.267 345.827Z" fill="white"/>
<path d="M289.267 294.147C289.267 294.504 288.991 294.753 288.559 294.753L282.841 294.757C282.405 294.757 282.133 294.508 282.133 294.147C282.133 293.96 282.213 293.809 282.316 293.595L285.032 287.975C285.228 287.579 285.429 287.432 285.7 287.432C285.972 287.432 286.172 287.579 286.364 287.975L289.085 293.595C289.187 293.804 289.267 293.956 289.267 294.147Z" fill="white"/>
<path d="M289.267 268.307C289.267 268.664 288.991 268.913 288.559 268.913L282.841 268.917C282.405 268.917 282.133 268.668 282.133 268.307C282.133 268.12 282.213 267.969 282.316 267.755L285.032 262.135C285.228 261.739 285.429 261.592 285.7 261.592C285.972 261.592 286.172 261.739 286.364 262.135L289.085 267.755C289.187 267.964 289.267 268.116 289.267 268.307Z" fill="white"/>
<path opacity="0.5" d="M28.0677 451.751C26.1477 451.751 25.3877 450.661 25.3877 449.241V448.901H26.1277V449.271C26.1277 450.451 26.6477 451.051 28.0677 451.051C29.4777 451.051 30.0077 450.451 30.0077 449.301V444.951H30.7477V449.261C30.7477 450.671 29.9977 451.751 28.0677 451.751ZM33.2698 451.751C32.2998 451.751 31.6398 451.291 31.6398 450.491C31.6398 449.681 32.3098 449.331 33.2298 449.231L35.5798 448.971V448.591C35.5798 447.631 35.1598 447.251 34.0798 447.251C33.0198 447.251 32.4598 447.631 32.4598 448.501V448.541H31.7498V448.501C31.7498 447.461 32.6098 446.611 34.1298 446.611C35.6298 446.611 36.2698 447.471 36.2698 448.561V451.651H35.6298V450.321H35.5798C35.2898 451.231 34.4198 451.751 33.2698 451.751ZM32.3498 450.441C32.3498 450.941 32.6798 451.201 33.4298 451.201C34.6298 451.201 35.5798 450.671 35.5798 449.481V449.441L33.4498 449.681C32.7098 449.751 32.3498 449.931 32.3498 450.441ZM38.1469 451.651H37.4369V446.711H38.0769V448.261H38.1269C38.2969 447.421 38.9969 446.611 40.2269 446.611C41.6169 446.611 42.3069 447.601 42.3069 448.771V451.651H41.5969V448.871C41.5969 447.851 41.1069 447.261 39.9769 447.261C38.7769 447.261 38.1469 447.991 38.1469 449.261V451.651Z" fill="#AA3CDD"/>
<path opacity="0.5" d="M88.3745 451.651H87.6645V444.951H92.6845V445.601H88.3745V448.161H92.5345V448.801H88.3745V451.651ZM95.9813 451.751C94.3913 451.751 93.3813 450.751 93.3813 449.181C93.3813 447.681 94.3813 446.611 95.9712 446.611C97.4213 446.611 98.4513 447.451 98.4513 448.921C98.4513 449.101 98.4313 449.251 98.4013 449.381H94.0513C94.0913 450.491 94.6613 451.161 95.9712 451.161C97.1313 451.161 97.6713 450.731 97.6713 450.011V449.941H98.3813V450.011C98.3813 451.041 97.3613 451.751 95.9813 451.751ZM95.9613 447.201C94.6813 447.201 94.1013 447.861 94.0513 448.941H97.7813C97.7813 448.891 97.7813 448.841 97.7813 448.791C97.7813 447.751 97.1213 447.201 95.9613 447.201ZM100.033 451.651H99.393V444.951H100.103V448.091H100.153C100.363 447.241 101.073 446.611 102.263 446.611C103.813 446.611 104.663 447.681 104.663 449.181C104.663 450.681 103.813 451.751 102.203 451.751C101.103 451.751 100.313 451.181 100.083 450.191H100.033V451.651ZM100.103 449.261C100.103 450.431 100.843 451.101 102.033 451.101C103.213 451.101 103.943 450.611 103.943 449.181C103.943 447.751 103.193 447.271 102.053 447.271C100.803 447.271 100.103 447.951 100.103 449.171V449.261Z" fill="#AA3CDD"/>
<path opacity="0.5" d="M150.671 451.651H149.961V444.951H150.931L153.181 449.321L153.771 450.561H153.821L154.401 449.321L156.641 444.951H157.621V451.651H156.911V446.931L156.931 446.031H156.871L156.451 446.931L154.221 451.251H153.361L151.131 446.931L150.701 446.031H150.651L150.671 446.931V451.651ZM160.179 451.751C159.209 451.751 158.549 451.291 158.549 450.491C158.549 449.681 159.219 449.331 160.139 449.231L162.489 448.971V448.591C162.489 447.631 162.069 447.251 160.989 447.251C159.929 447.251 159.369 447.631 159.369 448.501V448.541H158.659V448.501C158.659 447.461 159.519 446.611 161.039 446.611C162.539 446.611 163.179 447.471 163.179 448.561V451.651H162.539V450.321H162.489C162.199 451.231 161.329 451.751 160.179 451.751ZM159.259 450.441C159.259 450.941 159.589 451.201 160.339 451.201C161.539 451.201 162.489 450.671 162.489 449.481V449.441L160.359 449.681C159.619 449.751 159.259 449.931 159.259 450.441ZM165.056 451.651H164.346V446.711H164.986V448.061H165.036C165.186 447.271 165.746 446.611 166.776 446.611C167.916 446.611 168.416 447.451 168.416 448.371V448.861H167.706V448.481C167.706 447.641 167.356 447.231 166.496 447.231C165.496 447.231 165.056 447.861 165.056 448.971V451.651Z" fill="#AA3CDD"/>
<path opacity="0.5" d="M214.233 451.651H213.453L216.483 444.951H217.473L220.513 451.651H219.713L218.813 449.681H215.133L214.233 451.651ZM216.573 446.501L215.423 449.041H218.523L217.363 446.501L216.993 445.631H216.933L216.573 446.501ZM221.872 453.351H221.162V446.711H221.802V448.101H221.882C222.102 447.211 222.842 446.611 224.012 446.611C225.552 446.611 226.432 447.681 226.432 449.181C226.432 450.681 225.562 451.751 223.992 451.751C222.902 451.751 222.112 451.151 221.882 450.201H221.872V453.351ZM221.872 449.271C221.872 450.441 222.642 451.101 223.802 451.101C224.952 451.101 225.712 450.611 225.712 449.181C225.712 447.751 224.942 447.271 223.822 447.271C222.592 447.271 221.872 447.961 221.872 449.181V449.271ZM228.014 451.651H227.304V446.711H227.944V448.061H227.994C228.144 447.271 228.704 446.611 229.734 446.611C230.874 446.611 231.374 447.451 231.374 448.371V448.861H230.664V448.481C230.664 447.641 230.314 447.231 229.454 447.231C228.454 447.231 228.014 447.861 228.014 448.971V451.651Z" fill="#AA3CDD"/>
<path d="M277.763 449.651H276.683V442.951H278.153L280.083 446.831L280.693 448.221H280.773L281.363 446.831L283.273 442.951H284.743V449.651H283.663V445.541L283.703 444.571H283.623L283.213 445.541L281.363 449.251H280.063L278.213 445.541L277.803 444.571H277.723L277.763 445.541V449.651ZM287.205 449.751C286.175 449.751 285.525 449.271 285.525 448.451C285.525 447.681 286.145 447.281 287.125 447.171L289.385 446.931V446.641C289.385 445.821 289.025 445.531 288.075 445.531C287.155 445.531 286.705 445.831 286.705 446.561V446.601H285.635V446.561C285.635 445.431 286.575 444.581 288.155 444.581C289.735 444.581 290.445 445.441 290.445 446.631V449.651H289.455V448.411H289.385C289.125 449.251 288.335 449.751 287.205 449.751ZM286.605 448.381C286.605 448.781 286.875 448.971 287.495 448.971C288.625 448.971 289.385 448.551 289.385 447.571L287.435 447.791C286.875 447.861 286.605 447.991 286.605 448.381ZM292.209 451.351H291.499V450.371H292.469C292.909 450.371 293.089 450.251 293.239 449.911L293.359 449.651L290.909 444.681H292.119L293.389 447.321L293.879 448.511H293.959L294.429 447.311L295.599 444.681H296.789L294.199 450.191C293.789 451.081 293.229 451.351 292.209 451.351Z" fill="#500C6A"/>
<path opacity="0.5" d="M344.304 451.751C342.384 451.751 341.624 450.661 341.624 449.241V448.901H342.364V449.271C342.364 450.451 342.884 451.051 344.304 451.051C345.714 451.051 346.244 450.451 346.244 449.301V444.951H346.984V449.261C346.984 450.671 346.234 451.751 344.304 451.751ZM350.206 451.751C348.796 451.751 348.106 450.771 348.106 449.601V446.711H348.816V449.491C348.816 450.521 349.316 451.111 350.456 451.111C351.666 451.111 352.296 450.381 352.296 449.111V446.711H353.006V451.651H352.366V450.111H352.316C352.146 450.951 351.436 451.751 350.206 451.751ZM354.911 451.651H354.201V446.711H354.841V448.261H354.891C355.061 447.421 355.761 446.611 356.991 446.611C358.381 446.611 359.071 447.601 359.071 448.771V451.651H358.361V448.871C358.361 447.851 357.871 447.261 356.741 447.261C355.541 447.261 354.911 447.991 354.911 449.261V451.651Z" fill="#AA3CDD"/>
<path opacity="0.5" d="M407.365 451.751C405.445 451.751 404.685 450.661 404.685 449.241V448.901H405.425V449.271C405.425 450.451 405.945 451.051 407.365 451.051C408.775 451.051 409.305 450.451 409.305 449.301V444.951H410.045V449.261C410.045 450.671 409.295 451.751 407.365 451.751ZM413.267 451.751C411.857 451.751 411.167 450.771 411.167 449.601V446.711H411.877V449.491C411.877 450.521 412.377 451.111 413.517 451.111C414.727 451.111 415.357 450.381 415.357 449.111V446.711H416.067V451.651H415.427V450.111H415.377C415.207 450.951 414.497 451.751 413.267 451.751ZM417.971 451.651H417.261V444.951H417.971V451.651Z" fill="#AA3CDD"/>
</g>
<rect x="0.5" y="72.1512" width="455" height="423" rx="23.5" stroke="url(#paint6_linear_2454_1723)"/>
<defs>
<filter id="filter0_d_2454_1723" x="252.32" y="206.263" width="68.3999" height="68.4" filterUnits="userSpaceOnUse" color-interpolation-filters="sRGB">
<feFlood flood-opacity="0" result="BackgroundImageFix"/>
<feColorMatrix in="SourceAlpha" type="matrix" values="0 0 0 0 0 0 0 0 0 0 0 0 0 0 0 0 0 0 127 0" result="hardAlpha"/>
<feOffset dy="3.8"/>
<feGaussianBlur stdDeviation="9.5"/>
<feColorMatrix type="matrix" values="0 0 0 0 0 0 0 0 0 0 0 0 0 0 0 0 0 0 0.1 0"/>
<feBlend mode="normal" in2="BackgroundImageFix" result="effect1_dropShadow_2454_1723"/>
<feBlend mode="normal" in="SourceGraphic" in2="effect1_dropShadow_2454_1723" result="shape"/>
</filter>
<linearGradient id="paint0_linear_2454_1723" x1="316.44" y1="0.348755" x2="316.44" y2="384.349" gradientUnits="userSpaceOnUse">
<stop stop-color="#500C6A"/>
<stop offset="1" stop-color="#500C6A" stop-opacity="0"/>
</linearGradient>
<linearGradient id="paint1_linear_2454_1723" x1="281.909" y1="43.8165" x2="281.909" y2="427.816" gradientUnits="userSpaceOnUse">
<stop stop-color="#500C6A" stop-opacity="0.8"/>
<stop offset="1" stop-color="#500C6A" stop-opacity="0"/>
</linearGradient>
<linearGradient id="paint2_linear_2454_1723" x1="228" y1="164.379" x2="228" y2="460.103" gradientUnits="userSpaceOnUse">
<stop offset="0.735" stop-color="#A63AD9" stop-opacity="0.4"/>
<stop offset="1" stop-color="white"/>
</linearGradient>
<linearGradient id="paint3_linear_2454_1723" x1="228" y1="164.379" x2="228" y2="348.003" gradientUnits="userSpaceOnUse">
<stop stop-color="#AA3CDD"/>
<stop offset="1" stop-color="#500C6A"/>
</linearGradient>
<linearGradient id="paint4_linear_2454_1723" x1="286.52" y1="237.879" x2="286.52" y2="460.103" gradientUnits="userSpaceOnUse">
<stop stop-color="white"/>
<stop offset="0.445" stop-color="#6E1C90"/>
<stop offset="1" stop-color="white"/>
</linearGradient>
<linearGradient id="paint5_linear_2454_1723" x1="286.52" y1="221.463" x2="286.52" y2="251.863" gradientUnits="userSpaceOnUse">
<stop stop-color="#AA3CDD"/>
<stop offset="1" stop-color="#500C6A"/>
</linearGradient>
<linearGradient id="paint6_linear_2454_1723" x1="31.5" y1="71.6513" x2="485.726" y2="177.906" gradientUnits="userSpaceOnUse">
<stop stop-color="white" stop-opacity="0"/>
<stop offset="1" stop-color="#AA3CDD"/>
</linearGradient>
<clipPath id="clip0_2454_1723">
<rect y="71.6512" width="456" height="424" rx="24" fill="white"/>
</clipPath>
</defs>
</svg>
