<svg width="127" height="49" viewBox="0 0 127 49" fill="none" xmlns="http://www.w3.org/2000/svg">
<path d="M9.192 31.863C3.888 31.863 0.6 28.599 0.6 23.583C0.6 18.567 3.888 15.303 9.192 15.303C14.184 15.303 17.4 17.799 17.4 21.879V22.239H13.392V21.879C13.392 19.767 12.192 18.759 9.264 18.759C5.736 18.759 4.416 20.007 4.416 23.583C4.416 27.159 5.736 28.407 9.264 28.407C12.192 28.407 13.392 27.399 13.392 25.287V24.927H17.4V25.287C17.4 29.367 14.208 31.863 9.192 31.863ZM22.656 31.863C20.064 31.863 18.504 30.663 18.504 28.647C18.504 26.871 19.824 25.767 22.392 25.503L27.552 24.975V24.519C27.552 22.959 26.856 22.527 24.936 22.527C23.112 22.527 22.368 23.007 22.368 24.375V24.471H18.744V24.399C18.744 21.423 21.24 19.359 25.2 19.359C29.208 19.359 31.104 21.423 31.104 24.567V31.623H27.744V28.863H27.552C27 30.735 25.32 31.863 22.656 31.863ZM22.128 28.407C22.128 29.055 22.632 29.319 23.688 29.319C26.136 29.319 27.456 28.743 27.552 27.039L23.376 27.519C22.512 27.591 22.128 27.831 22.128 28.407ZM39.0008 31.863C34.9448 31.863 32.7128 30.279 32.7128 27.495V27.423H36.3128V27.639C36.3128 28.719 36.9848 29.007 39.0247 29.007C40.9448 29.007 41.4008 28.695 41.4008 27.975C41.4008 27.303 41.0408 27.111 39.6248 26.919L36.2408 26.511C33.8408 26.247 32.4968 25.167 32.4968 23.151C32.4968 21.039 34.2968 19.359 38.4248 19.359C42.3608 19.359 44.5928 20.847 44.5928 23.775V23.847H40.9928V23.703C40.9928 22.719 40.5128 22.215 38.3047 22.215C36.5048 22.215 36.0488 22.527 36.0488 23.295C36.0488 23.919 36.3848 24.183 37.9688 24.375L40.5368 24.687C43.7528 25.047 44.9528 26.127 44.9528 28.119C44.9528 30.375 42.7208 31.863 39.0008 31.863ZM50.0053 31.623H46.4053V15.543H50.0053V23.271H50.1973C50.5813 21.231 51.9973 19.359 55.0693 19.359C58.3093 19.359 59.8933 21.471 59.8933 24.255V31.623H56.2933V25.335C56.2933 23.319 55.4293 22.599 53.1733 22.599C50.7493 22.599 50.0053 23.583 50.0053 25.599V31.623ZM73.3571 31.623H65.6051V15.543H73.3571C78.5171 15.543 81.7811 18.543 81.7811 23.583C81.7811 28.623 78.5171 31.623 73.3571 31.623ZM73.3571 18.783H69.2051V28.383H73.3571C76.6211 28.383 77.9411 27.447 77.9411 23.583C77.9411 19.719 76.6211 18.783 73.3571 18.783ZM86.9428 18.375H83.3428V15.543H86.9428V18.375ZM86.9428 31.623H83.3428V19.599H86.9428V31.623ZM92.4272 31.623H88.8272V19.599H92.1632V23.247H92.3552C92.6432 21.231 93.8432 19.359 96.8672 19.359C99.6512 19.359 101.067 21.063 101.331 23.295H101.547C101.835 21.255 103.059 19.359 106.155 19.359C109.251 19.359 110.763 21.399 110.763 24.135V31.623H107.163V25.335C107.163 23.343 106.467 22.599 104.403 22.599C102.219 22.599 101.595 23.463 101.595 25.551V31.623H97.9952V25.335C97.9952 23.343 97.2992 22.599 95.2352 22.599C93.0512 22.599 92.4272 23.463 92.4272 25.551V31.623ZM118.977 31.863C114.969 31.863 112.233 29.895 112.233 25.623C112.233 21.783 114.945 19.359 118.905 19.359C122.841 19.359 125.457 21.423 125.457 25.191C125.457 25.623 125.409 25.935 125.361 26.343H115.569C115.665 28.191 116.529 28.983 118.857 28.983C120.993 28.983 121.737 28.431 121.737 27.399V27.159H125.337V27.423C125.337 30.039 122.793 31.863 118.977 31.863ZM118.833 22.167C116.697 22.167 115.785 22.887 115.617 24.447H122.001C121.905 22.863 120.945 22.167 118.833 22.167Z" fill="#FAFAFA"/>
</svg>
