<svg width="71" height="70" viewBox="0 0 71 70" fill="none" xmlns="http://www.w3.org/2000/svg">
<rect x="0.833313" width="70" height="70" rx="35" fill="#F7ECFC"/>
<g clip-path="url(#clip0_2700_3430)">
<path d="M20.0833 19.25H51.5833C52.0474 19.25 52.4926 19.4344 52.8208 19.7626C53.1489 20.0908 53.3333 20.5359 53.3333 21V49C53.3333 49.4641 53.1489 49.9093 52.8208 50.2374C52.4926 50.5656 52.0474 50.75 51.5833 50.75H20.0833C19.6192 50.75 19.1741 50.5656 18.8459 50.2374C18.5177 49.9093 18.3333 49.4641 18.3333 49V21C18.3333 20.5359 18.5177 20.0908 18.8459 19.7626C19.1741 19.4344 19.6192 19.25 20.0833 19.25ZM49.8333 35H21.8333V47.25H49.8333V35ZM49.8333 28V22.75H21.8333V28H49.8333Z" fill="#500C6A"/>
</g>
<defs>
<clipPath id="clip0_2700_3430">
<rect width="42" height="42" fill="white" transform="translate(14.8333 14)"/>
</clipPath>
</defs>
</svg>
