<svg width="45" height="44" viewBox="0 0 45 44" fill="none" xmlns="http://www.w3.org/2000/svg">
<rect x="0.5" width="44" height="44" rx="22" fill="#F5FCF2"/>
<g clip-path="url(#clip0_2951_4323)">
<path d="M27.5 13H31.5C31.7652 13 32.0196 13.1054 32.2071 13.2929C32.3946 13.4804 32.5 13.7348 32.5 14V30C32.5 30.2652 32.3946 30.5196 32.2071 30.7071C32.0196 30.8946 31.7652 31 31.5 31H13.5C13.2348 31 12.9804 30.8946 12.7929 30.7071C12.6054 30.5196 12.5 30.2652 12.5 30V14C12.5 13.7348 12.6054 13.4804 12.7929 13.2929C12.9804 13.1054 13.2348 13 13.5 13H17.5V11H19.5V13H25.5V11H27.5V13ZM30.5 21H14.5V29H30.5V21ZM25.5 15H19.5V17H17.5V15H14.5V19H30.5V15H27.5V17H25.5V15ZM16.5 23H18.5V25H16.5V23ZM21.5 23H23.5V25H21.5V23ZM26.5 23H28.5V25H26.5V23Z" fill="#399320"/>
</g>
<defs>
<clipPath id="clip0_2951_4323">
<rect width="24" height="24" fill="white" transform="translate(10.5 10)"/>
</clipPath>
</defs>
</svg>
