<svg width="16" height="16" viewBox="0 0 16 16" fill="none" xmlns="http://www.w3.org/2000/svg">
<g clip-path="url(#clip0_2842_5121)">
<path d="M8.00004 14.6673C4.31804 14.6673 1.33337 11.6827 1.33337 8.00065C1.33337 4.31865 4.31804 1.33398 8.00004 1.33398C11.682 1.33398 14.6667 4.31865 14.6667 8.00065C14.6667 11.6827 11.682 14.6673 8.00004 14.6673ZM8.00004 13.334C9.41453 13.334 10.7711 12.7721 11.7713 11.7719C12.7715 10.7717 13.3334 9.41514 13.3334 8.00065C13.3334 6.58616 12.7715 5.22961 11.7713 4.22941C10.7711 3.22922 9.41453 2.66732 8.00004 2.66732C6.58555 2.66732 5.229 3.22922 4.2288 4.22941C3.22861 5.22961 2.66671 6.58616 2.66671 8.00065C2.66671 9.41514 3.22861 10.7717 4.2288 11.7719C5.229 12.7721 6.58555 13.334 8.00004 13.334ZM7.33337 10.0007H8.66671V11.334H7.33337V10.0007ZM7.33337 4.66732H8.66671V8.66732H7.33337V4.66732Z" fill="#FF5555"/>
</g>
<defs>
<clipPath id="clip0_2842_5121">
<rect width="16" height="16" fill="white"/>
</clipPath>
</defs>
</svg>
