<svg width="17" height="17" viewBox="0 0 17 17" fill="none" xmlns="http://www.w3.org/2000/svg">
<g clip-path="url(#clip0_2969_733)">
<path d="M13.1557 9.93156H8.70593V7.06665H16.2827C16.3937 7.54587 16.4452 8.01316 16.4452 8.6497C16.4452 11.057 15.5672 13.0846 14.0463 14.4653L13.9123 14.4522L11.523 12.6436L11.5309 12.5922C12.6192 11.84 13.1106 10.7277 13.2023 9.98417L13.2088 9.93156H13.1557Z" fill="#4285F4" stroke="#111111" stroke-width="0.09375"/>
<path d="M11.4862 12.6227L13.9889 14.517C12.6513 15.7076 10.829 16.3982 8.65918 16.3982C5.49327 16.3982 2.75856 14.6272 1.42124 12.0481L1.44229 11.9909L3.93911 10.1028L3.9849 10.099C4.65414 12.0219 6.49389 13.4092 8.65918 13.4092C9.86661 13.4092 10.792 13.0876 11.4862 12.6227Z" fill="#34A853" stroke="#111111" stroke-width="0.09375"/>
<path d="M4.0172 10.0494C3.84495 9.5533 3.74526 9.02176 3.74526 8.47257C3.74526 7.92332 3.84495 7.39184 4.00813 6.89577L4.00357 6.79013L1.45338 4.85498L1.36995 4.89376C0.816946 5.97449 0.499634 7.18811 0.499634 8.47257C0.499634 9.75703 0.816946 10.9706 1.36995 12.0513L4.0172 10.0494Z" fill="#FBBC05"/>
<path d="M8.65918 3.58269C10.1913 3.58269 11.2248 4.22934 11.8141 4.76974L14.1169 2.57286C12.7026 1.2884 10.8622 0.5 8.65918 0.5C5.46793 0.5 2.71187 2.28937 1.37012 4.89371L4.0083 6.89573C4.67018 4.97347 6.50149 3.58269 8.65918 3.58269Z" fill="#EB4335"/>
</g>
<defs>
<clipPath id="clip0_2969_733">
<rect width="16" height="16" fill="white" transform="translate(0.5 0.5)"/>
</clipPath>
</defs>
</svg>
