<svg width="31" height="31" viewBox="0 0 31 31" fill="none" xmlns="http://www.w3.org/2000/svg">
<path d="M21.75 2.62305H9.25C5.79822 2.62305 3 5.42127 3 8.87305V21.373C3 24.8248 5.79822 27.623 9.25 27.623H21.75C25.2018 27.623 28 24.8248 28 21.373V8.87305C28 5.42127 25.2018 2.62305 21.75 2.62305Z" stroke="#FAFAFA" stroke-width="2.5" stroke-linecap="round" stroke-linejoin="round"/>
<path d="M22.3751 8.24805H22.3876M20.5001 14.3355C20.6544 15.3759 20.4767 16.4383 19.9923 17.3718C19.5079 18.3053 18.7416 19.0623 17.8022 19.5351C16.8628 20.008 15.7982 20.1725 14.7599 20.0055C13.7215 19.8384 12.7623 19.3482 12.0187 18.6045C11.275 17.8608 10.7848 16.9016 10.6177 15.8633C10.4506 14.825 10.6152 13.7604 11.088 12.821C11.5609 11.8816 12.3179 11.1152 13.2514 10.6308C14.1849 10.1465 15.2473 9.96878 16.2876 10.123C17.3488 10.2804 18.3312 10.7749 19.0897 11.5334C19.8483 12.292 20.3428 13.2744 20.5001 14.3355Z" stroke="#FAFAFA" stroke-width="2.5" stroke-linecap="round" stroke-linejoin="round"/>
</svg>
