<svg width="51" height="304" viewBox="0 0 51 304" fill="none" xmlns="http://www.w3.org/2000/svg">
<rect width="50.3348" height="303.632" transform="translate(0.275391 0.207031)" fill="#B7A486"/>
<path d="M9.84336 287.049L38.2809 287.067L38.2772 292.907L9.83972 292.889L9.84336 287.049ZM9.86124 258.416L38.2987 258.434L38.2951 264.293L19.2254 275.707L38.2879 275.719L38.2843 281.578L9.84679 281.561L9.85045 275.701L28.9396 264.268L9.85759 264.256L9.86124 258.416ZM32.3708 243.079L9.875 236.365L9.87907 229.842L38.3104 239.762L38.3077 244.059L32.3708 243.079ZM9.86697 249.236L32.3711 242.571L38.3093 241.559L38.3066 245.895L9.86292 255.721L9.86697 249.236ZM23.4498 204.108L24.7975 204.109C26.9589 204.11 28.8989 204.405 30.6172 204.992C32.3356 205.579 33.8 206.406 35.0102 207.475C36.2075 208.543 37.1247 209.82 37.7617 211.305C38.3988 212.776 38.7168 214.411 38.7157 216.208C38.7146 217.991 38.3946 219.625 37.7556 221.109C37.1167 222.58 36.1979 223.856 34.9993 224.936C33.7877 226.016 32.3224 226.855 30.6032 227.453C28.8841 228.037 26.9438 228.329 24.7824 228.328L23.4347 228.327C21.2602 228.326 19.3203 228.031 17.6149 227.444C15.8966 226.857 14.4322 226.03 13.222 224.961C12.0117 223.88 11.088 222.603 10.4509 221.131C9.81382 219.647 9.49583 218.012 9.49695 216.228C9.49807 214.432 9.8181 212.798 10.457 211.327C11.096 209.843 12.0213 208.567 13.2329 207.5C14.4445 206.42 15.9098 205.588 17.629 205.003C19.3351 204.405 21.2754 204.107 23.4498 204.108ZM24.7938 210.027L23.4071 210.026C21.8967 210.025 20.5684 210.161 19.4224 210.434C18.2764 210.707 17.3126 211.11 16.5311 211.643C15.7495 212.176 15.1631 212.827 14.772 213.595C14.3679 214.363 14.1655 215.242 14.1649 216.231C14.1643 217.221 14.3656 218.1 14.7687 218.868C15.1589 219.624 15.7444 220.269 16.5253 220.803C17.3063 221.324 18.2696 221.722 19.4152 221.996C20.5609 222.27 21.8889 222.408 23.3993 222.409L24.7861 222.41C26.2835 222.411 27.6117 222.275 28.7707 222.002C29.9167 221.729 30.887 221.326 31.6816 220.793C32.4632 220.26 33.056 219.609 33.4602 218.841C33.8643 218.073 34.0667 217.194 34.0673 216.205C34.0679 215.215 33.8666 214.336 33.4635 213.568C33.0603 212.799 32.4682 212.154 31.6873 211.633C30.8934 211.112 29.9236 210.714 28.7779 210.44C27.6192 210.165 26.2912 210.028 24.7938 210.027ZM9.90167 193.651L38.3392 193.668L38.3355 199.508L9.89802 199.49L9.90167 193.651ZM28.9193 171.69L28.9229 165.85C30.8369 165.968 32.5358 166.497 34.0196 167.435C35.5034 168.361 36.6614 169.657 37.4937 171.324C38.326 172.978 38.7415 174.971 38.74 177.301C38.7389 179.124 38.4253 180.758 37.7994 182.203C37.1605 183.648 36.2483 184.884 35.0628 185.912C33.8772 186.927 32.4444 187.701 30.7644 188.234C29.0844 188.767 27.2027 189.032 25.1194 189.031L23.1467 189.03C21.0634 189.029 19.1821 188.754 17.5027 188.206C15.8104 187.645 14.3721 186.85 13.1878 185.821C12.0036 184.778 11.0929 183.534 10.4558 182.088C9.81864 180.643 9.50064 179.028 9.50175 177.244C9.50323 174.874 9.93417 172.876 10.7946 171.249C11.655 169.609 12.8406 168.34 14.3516 167.442C15.8626 166.532 17.5817 165.986 19.5089 165.805L19.5052 171.664C18.3594 171.729 17.3892 171.956 16.5947 172.346C15.7871 172.736 15.1813 173.328 14.7771 174.122C14.36 174.903 14.151 175.945 14.1502 177.247C14.1496 178.223 14.3313 179.076 14.6955 179.806C15.0596 180.535 15.6126 181.148 16.3545 181.643C17.0964 182.138 18.0336 182.51 19.1663 182.758C20.2859 182.993 21.601 183.111 23.1114 183.112L25.1231 183.113C26.5944 183.114 27.8901 183.004 29.01 182.784C30.1169 182.563 31.0546 182.225 31.8232 181.77C32.5787 181.301 33.1519 180.703 33.543 179.974C33.9211 179.232 34.1104 178.34 34.1111 177.298C34.1119 176.074 33.9172 175.065 33.5271 174.271C33.1369 173.476 32.5579 172.87 31.7899 172.453C31.0219 172.023 30.0651 171.769 28.9193 171.69ZM33.8005 142.923L38.3708 142.926L38.3614 158.063L33.7911 158.06L33.8005 142.923ZM9.92509 156.131L38.3626 156.149L38.3589 162.008L9.92143 161.99L9.92509 156.131ZM21.5141 144.888L25.9673 144.891L25.959 158.055L21.5059 158.052L21.5141 144.888ZM9.93333 142.928L14.5232 142.931L14.5137 158.048L9.92389 158.045L9.93333 142.928Z" fill="#FAFAFA"/>
</svg>
