<svg width="241" height="62" viewBox="0 0 241 62" fill="none" xmlns="http://www.w3.org/2000/svg">
<path d="M0 0H210C210.928 0 211.393 0 211.785 0.0102802C227.738 0.428022 240.572 13.2618 240.99 29.2147C241 29.6073 241 30.0715 241 31C241 31.9285 241 32.3927 240.99 32.7853C240.572 48.7382 227.738 61.572 211.785 61.9897C211.393 62 210.928 62 210 62H0V0Z" fill="#020B71"/>
<path d="M55.0001 11L80 26.0098V35.9863L55.0001 51L30 35.9863V26.0099L55.0001 11Z" fill="#A5B4FC"/>
<path fill-rule="evenodd" clip-rule="evenodd" d="M30 26.0099L55.0001 11L80 26.0098V35.9863L55.0001 51L30 35.9863V26.0099ZM55 44.631L74.6967 32.8022V29.1951L74.6957 29.1945L55 41.0197L35.3043 29.1945L35.3033 29.1951V32.8022L55 44.631ZM55 35.5046L70.1018 26.4376L66.4229 24.2298L55 31.0881L43.5771 24.2298L39.8982 26.4376L55 35.5046ZM55 25.573L61.829 21.4729L55 17.3747L48.171 21.4729L55 25.573Z" fill="#4F46E5"/>
<path d="M55.0001 11L30 26.0099V35.9863L55.0001 51V11Z" fill="#A5B4FC" fill-opacity="0.3"/>
<path d="M93.0318 35.028H96.7918V36.5H91.2078V25.38H93.0318V35.028ZM102.141 36.644C101.309 36.644 100.557 36.4573 99.8852 36.084C99.2132 35.7 98.6852 35.1667 98.3012 34.484C97.9172 33.7907 97.7252 32.9907 97.7252 32.084C97.7252 31.188 97.9225 30.3933 98.3172 29.7C98.7119 29.0067 99.2505 28.4733 99.9332 28.1C100.616 27.7267 101.379 27.54 102.221 27.54C103.064 27.54 103.827 27.7267 104.509 28.1C105.192 28.4733 105.731 29.0067 106.125 29.7C106.52 30.3933 106.717 31.188 106.717 32.084C106.717 32.98 106.515 33.7747 106.109 34.468C105.704 35.1613 105.149 35.7 104.445 36.084C103.752 36.4573 102.984 36.644 102.141 36.644ZM102.141 35.06C102.611 35.06 103.048 34.948 103.453 34.724C103.869 34.5 104.205 34.164 104.461 33.716C104.717 33.268 104.845 32.724 104.845 32.084C104.845 31.444 104.723 30.9053 104.477 30.468C104.232 30.02 103.907 29.684 103.501 29.46C103.096 29.236 102.659 29.124 102.189 29.124C101.72 29.124 101.283 29.236 100.877 29.46C100.483 29.684 100.168 30.02 99.9332 30.468C99.6985 30.9053 99.5812 31.444 99.5812 32.084C99.5812 33.0333 99.8212 33.7693 100.301 34.292C100.792 34.804 101.405 35.06 102.141 35.06ZM112.072 27.54C112.755 27.54 113.358 27.6787 113.88 27.956C114.414 28.2227 114.83 28.5587 115.128 28.964V27.684H116.968V36.644C116.968 37.4547 116.798 38.1747 116.456 38.804C116.115 39.444 115.619 39.9453 114.968 40.308C114.328 40.6707 113.56 40.852 112.664 40.852C111.47 40.852 110.478 40.5693 109.688 40.004C108.899 39.4493 108.451 38.692 108.344 37.732H110.152C110.291 38.1907 110.584 38.5587 111.032 38.836C111.491 39.124 112.035 39.268 112.664 39.268C113.4 39.268 113.992 39.044 114.44 38.596C114.899 38.148 115.128 37.4973 115.128 36.644V35.172C114.819 35.588 114.398 35.94 113.864 36.228C113.342 36.5053 112.744 36.644 112.072 36.644C111.304 36.644 110.6 36.452 109.96 36.068C109.331 35.6733 108.83 35.1293 108.456 34.436C108.094 33.732 107.912 32.9373 107.912 32.052C107.912 31.1667 108.094 30.3827 108.456 29.7C108.83 29.0173 109.331 28.4893 109.96 28.116C110.6 27.732 111.304 27.54 112.072 27.54ZM115.128 32.084C115.128 31.476 115 30.948 114.744 30.5C114.499 30.052 114.174 29.7107 113.768 29.476C113.363 29.2413 112.926 29.124 112.456 29.124C111.987 29.124 111.55 29.2413 111.144 29.476C110.739 29.7 110.408 30.036 110.152 30.484C109.907 30.9213 109.784 31.444 109.784 32.052C109.784 32.66 109.907 33.1933 110.152 33.652C110.408 34.1107 110.739 34.4627 111.144 34.708C111.56 34.9427 111.998 35.06 112.456 35.06C112.926 35.06 113.363 34.9427 113.768 34.708C114.174 34.4733 114.499 34.132 114.744 33.684C115 33.2253 115.128 32.692 115.128 32.084ZM123.188 36.644C122.356 36.644 121.604 36.4573 120.932 36.084C120.26 35.7 119.732 35.1667 119.348 34.484C118.964 33.7907 118.772 32.9907 118.772 32.084C118.772 31.188 118.969 30.3933 119.364 29.7C119.759 29.0067 120.297 28.4733 120.98 28.1C121.663 27.7267 122.425 27.54 123.268 27.54C124.111 27.54 124.873 27.7267 125.556 28.1C126.239 28.4733 126.777 29.0067 127.172 29.7C127.567 30.3933 127.764 31.188 127.764 32.084C127.764 32.98 127.561 33.7747 127.156 34.468C126.751 35.1613 126.196 35.7 125.492 36.084C124.799 36.4573 124.031 36.644 123.188 36.644ZM123.188 35.06C123.657 35.06 124.095 34.948 124.5 34.724C124.916 34.5 125.252 34.164 125.508 33.716C125.764 33.268 125.892 32.724 125.892 32.084C125.892 31.444 125.769 30.9053 125.524 30.468C125.279 30.02 124.953 29.684 124.548 29.46C124.143 29.236 123.705 29.124 123.236 29.124C122.767 29.124 122.329 29.236 121.924 29.46C121.529 29.684 121.215 30.02 120.98 30.468C120.745 30.9053 120.628 31.444 120.628 32.084C120.628 33.0333 120.868 33.7693 121.348 34.292C121.839 34.804 122.452 35.06 123.188 35.06ZM130.495 26.516C130.165 26.516 129.887 26.404 129.663 26.18C129.439 25.956 129.327 25.6787 129.327 25.348C129.327 25.0173 129.439 24.74 129.663 24.516C129.887 24.292 130.165 24.18 130.495 24.18C130.815 24.18 131.087 24.292 131.311 24.516C131.535 24.74 131.647 25.0173 131.647 25.348C131.647 25.6787 131.535 25.956 131.311 26.18C131.087 26.404 130.815 26.516 130.495 26.516ZM131.391 27.684V36.5H129.567V27.684H131.391ZM135.61 28.98C135.919 28.5747 136.341 28.2333 136.874 27.956C137.407 27.6787 138.01 27.54 138.682 27.54C139.45 27.54 140.149 27.732 140.778 28.116C141.418 28.4893 141.919 29.0173 142.282 29.7C142.645 30.3827 142.826 31.1667 142.826 32.052C142.826 32.9373 142.645 33.732 142.282 34.436C141.919 35.1293 141.418 35.6733 140.778 36.068C140.149 36.452 139.45 36.644 138.682 36.644C138.01 36.644 137.413 36.5107 136.89 36.244C136.367 35.9667 135.941 35.6253 135.61 35.22V40.692H133.786V27.684H135.61V28.98ZM140.97 32.052C140.97 31.444 140.842 30.9213 140.586 30.484C140.341 30.036 140.01 29.7 139.594 29.476C139.189 29.2413 138.751 29.124 138.282 29.124C137.823 29.124 137.386 29.2413 136.97 29.476C136.565 29.7107 136.234 30.052 135.978 30.5C135.733 30.948 135.61 31.476 135.61 32.084C135.61 32.692 135.733 33.2253 135.978 33.684C136.234 34.132 136.565 34.4733 136.97 34.708C137.386 34.9427 137.823 35.06 138.282 35.06C138.751 35.06 139.189 34.9427 139.594 34.708C140.01 34.4627 140.341 34.1107 140.586 33.652C140.842 33.1933 140.97 32.66 140.97 32.052ZM147.83 36.644C147.136 36.644 146.512 36.5213 145.958 36.276C145.414 36.02 144.982 35.6787 144.662 35.252C144.342 34.8147 144.171 34.3293 144.15 33.796H146.038C146.07 34.1693 146.246 34.484 146.566 34.74C146.896 34.9853 147.307 35.108 147.798 35.108C148.31 35.108 148.704 35.012 148.982 34.82C149.27 34.6173 149.414 34.3613 149.414 34.052C149.414 33.7213 149.254 33.476 148.934 33.316C148.624 33.156 148.128 32.98 147.446 32.788C146.784 32.6067 146.246 32.4307 145.83 32.26C145.414 32.0893 145.051 31.828 144.742 31.476C144.443 31.124 144.294 30.66 144.294 30.084C144.294 29.6147 144.432 29.188 144.71 28.804C144.987 28.4093 145.382 28.1 145.894 27.876C146.416 27.652 147.014 27.54 147.686 27.54C148.688 27.54 149.494 27.796 150.102 28.308C150.72 28.8093 151.051 29.4973 151.094 30.372H149.27C149.238 29.9773 149.078 29.6627 148.79 29.428C148.502 29.1933 148.112 29.076 147.622 29.076C147.142 29.076 146.774 29.1667 146.518 29.348C146.262 29.5293 146.134 29.7693 146.134 30.068C146.134 30.3027 146.219 30.5 146.39 30.66C146.56 30.82 146.768 30.948 147.014 31.044C147.259 31.1293 147.622 31.2413 148.102 31.38C148.742 31.5507 149.264 31.7267 149.67 31.908C150.086 32.0787 150.443 32.3347 150.742 32.676C151.04 33.0173 151.195 33.4707 151.206 34.036C151.206 34.5373 151.067 34.9853 150.79 35.38C150.512 35.7747 150.118 36.084 149.606 36.308C149.104 36.532 148.512 36.644 147.83 36.644ZM161.161 27.684V36.5H159.337V35.46C159.049 35.8227 158.67 36.1107 158.201 36.324C157.742 36.5267 157.251 36.628 156.729 36.628C156.035 36.628 155.411 36.484 154.857 36.196C154.313 35.908 153.881 35.4813 153.561 34.916C153.251 34.3507 153.097 33.668 153.097 32.868V27.684H154.905V32.596C154.905 33.3853 155.102 33.9933 155.497 34.42C155.891 34.836 156.43 35.044 157.113 35.044C157.795 35.044 158.334 34.836 158.729 34.42C159.134 33.9933 159.337 33.3853 159.337 32.596V27.684H161.161ZM174.239 27.54C174.933 27.54 175.551 27.684 176.095 27.972C176.65 28.26 177.082 28.6867 177.391 29.252C177.711 29.8173 177.871 30.5 177.871 31.3V36.5H176.063V31.572C176.063 30.7827 175.866 30.18 175.471 29.764C175.077 29.3373 174.538 29.124 173.855 29.124C173.173 29.124 172.629 29.3373 172.223 29.764C171.829 30.18 171.631 30.7827 171.631 31.572V36.5H169.823V31.572C169.823 30.7827 169.626 30.18 169.231 29.764C168.837 29.3373 168.298 29.124 167.615 29.124C166.933 29.124 166.389 29.3373 165.983 29.764C165.589 30.18 165.391 30.7827 165.391 31.572V36.5H163.567V27.684H165.391V28.692C165.69 28.3293 166.069 28.0467 166.527 27.844C166.986 27.6413 167.477 27.54 167.999 27.54C168.703 27.54 169.333 27.6893 169.887 27.988C170.442 28.2867 170.869 28.7187 171.167 29.284C171.434 28.7507 171.85 28.3293 172.415 28.02C172.981 27.7 173.589 27.54 174.239 27.54Z" fill="#FAFAFA"/>
</svg>
