<svg width="82" height="80" viewBox="0 0 82 80" fill="none" xmlns="http://www.w3.org/2000/svg">
<path d="M41.0001 10L66 25.0098V34.9863L41.0001 50L16 34.9863V25.0099L41.0001 10Z" fill="#A5B4FC"/>
<path fill-rule="evenodd" clip-rule="evenodd" d="M16 25.0099L41.0001 10L66 25.0098V34.9863L41.0001 50L16 34.9863V25.0099ZM41 43.631L60.6967 31.8022V28.1951L60.6957 28.1945L41 40.0197L21.3043 28.1945L21.3033 28.1951V31.8022L41 43.631ZM41 34.5046L56.1018 25.4376L52.4229 23.2298L41 30.0881L29.5771 23.2298L25.8982 25.4376L41 34.5046ZM41 24.573L47.829 20.4729L41 16.3747L34.171 20.4729L41 24.573Z" fill="#4F46E5"/>
<path d="M41.0001 10L16 25.0099V34.9863L41.0001 50V10Z" fill="#A5B4FC" fill-opacity="0.3"/>
<path d="M2.91406 64.4297V74.5469H8V76H1.34375V64.4297H2.91406ZM9.92969 75.0391C9.16406 74.2682 8.78125 73.2812 8.78125 72.0781C8.78125 70.875 9.16406 69.8906 9.92969 69.125C10.7005 68.3542 11.6771 67.9688 12.8594 67.9688C14.0312 67.9688 15 68.3542 15.7656 69.125C16.5365 69.8906 16.9219 70.875 16.9219 72.0781C16.9219 73.2812 16.5365 74.2682 15.7656 75.0391C15 75.8099 14.0312 76.1953 12.8594 76.1953C11.6771 76.1953 10.7005 75.8099 9.92969 75.0391ZM11.0078 70.0859C10.5339 70.5964 10.2969 71.2604 10.2969 72.0781C10.2969 72.8958 10.5339 73.5625 11.0078 74.0781C11.4818 74.5938 12.099 74.8516 12.8594 74.8516C13.6146 74.8516 14.2292 74.5938 14.7031 74.0781C15.1823 73.5625 15.4219 72.8958 15.4219 72.0781C15.4219 71.2604 15.1823 70.5964 14.7031 70.0859C14.2292 69.5703 13.6146 69.3125 12.8594 69.3125C12.099 69.3125 11.4818 69.5703 11.0078 70.0859ZM18.0938 71.8906C18.0938 71.151 18.2422 70.4844 18.5391 69.8906C18.8359 69.2969 19.2656 68.8255 19.8281 68.4766C20.3958 68.1276 21.0495 67.9531 21.7891 67.9531C22.4193 67.9531 22.9688 68.0885 23.4375 68.3594C23.9115 68.6302 24.2734 69.013 24.5234 69.5078L24.6328 68.1797H25.9766V75.6797C25.9766 76.9089 25.6224 77.888 24.9141 78.6172C24.2109 79.3464 23.2604 79.7109 22.0625 79.7109C21 79.7109 20.125 79.4271 19.4375 78.8594C18.75 78.2969 18.3333 77.5208 18.1875 76.5312H19.6953C19.7943 77.1094 20.0495 77.5573 20.4609 77.875C20.8724 78.1927 21.4062 78.3516 22.0625 78.3516C22.7969 78.3516 23.3854 78.1276 23.8281 77.6797C24.2708 77.237 24.4922 76.6458 24.4922 75.9062V74.3359C24.2318 74.7943 23.8594 75.151 23.375 75.4062C22.8906 75.6615 22.3411 75.7891 21.7266 75.7891C21.0026 75.7891 20.362 75.6172 19.8047 75.2734C19.2474 74.9297 18.8229 74.4635 18.5312 73.875C18.2396 73.2865 18.0938 72.625 18.0938 71.8906ZM19.5938 71.8594C19.5938 72.6094 19.8099 73.2344 20.2422 73.7344C20.6797 74.2292 21.2578 74.4766 21.9766 74.4766C22.7266 74.4766 23.3229 74.237 23.7656 73.7578C24.2083 73.2734 24.4297 72.6406 24.4297 71.8594C24.4297 71.0885 24.2109 70.4635 23.7734 69.9844C23.3411 69.5052 22.7474 69.2656 21.9922 69.2656C21.2578 69.2656 20.6745 69.513 20.2422 70.0078C19.8099 70.4974 19.5938 71.1146 19.5938 71.8594ZM28.7891 75.0391C28.0234 74.2682 27.6406 73.2812 27.6406 72.0781C27.6406 70.875 28.0234 69.8906 28.7891 69.125C29.5599 68.3542 30.5365 67.9688 31.7188 67.9688C32.8906 67.9688 33.8594 68.3542 34.625 69.125C35.3958 69.8906 35.7812 70.875 35.7812 72.0781C35.7812 73.2812 35.3958 74.2682 34.625 75.0391C33.8594 75.8099 32.8906 76.1953 31.7188 76.1953C30.5365 76.1953 29.5599 75.8099 28.7891 75.0391ZM29.8672 70.0859C29.3932 70.5964 29.1562 71.2604 29.1562 72.0781C29.1562 72.8958 29.3932 73.5625 29.8672 74.0781C30.3411 74.5938 30.9583 74.8516 31.7188 74.8516C32.474 74.8516 33.0885 74.5938 33.5625 74.0781C34.0417 73.5625 34.2812 72.8958 34.2812 72.0781C34.2812 71.2604 34.0417 70.5964 33.5625 70.0859C33.0885 69.5703 32.474 69.3125 31.7188 69.3125C30.9583 69.3125 30.3411 69.5703 29.8672 70.0859ZM38.8828 66.0312C38.6901 66.224 38.4557 66.3203 38.1797 66.3203C37.9036 66.3203 37.6693 66.224 37.4766 66.0312C37.2839 65.8333 37.1875 65.599 37.1875 65.3281C37.1875 65.0469 37.2839 64.8125 37.4766 64.625C37.6693 64.4323 37.9036 64.3359 38.1797 64.3359C38.4557 64.3359 38.6901 64.4323 38.8828 64.625C39.0755 64.8125 39.1719 65.0469 39.1719 65.3281C39.1719 65.599 39.0755 65.8333 38.8828 66.0312ZM37.4453 76V68.1797H38.9531V76H37.4453ZM41.1328 79.5078V68.1797H42.4922L42.6094 69.5859C42.8698 69.0599 43.2474 68.6562 43.7422 68.375C44.237 68.0938 44.8021 67.9531 45.4375 67.9531C46.5469 67.9531 47.4297 68.3307 48.0859 69.0859C48.7422 69.8359 49.0703 70.8177 49.0703 72.0312C49.0703 73.2552 48.7474 74.2578 48.1016 75.0391C47.4557 75.8203 46.5677 76.2109 45.4375 76.2109C44.8073 76.2109 44.2474 76.0833 43.7578 75.8281C43.2682 75.5677 42.8958 75.1979 42.6406 74.7188V79.5078H41.1328ZM42.6562 72.0938C42.6562 72.9115 42.8776 73.5755 43.3203 74.0859C43.763 74.5964 44.362 74.8516 45.1172 74.8516C45.8724 74.8516 46.4688 74.5964 46.9062 74.0859C47.349 73.5755 47.5703 72.9115 47.5703 72.0938C47.5703 71.2708 47.349 70.6042 46.9062 70.0938C46.4688 69.5833 45.8724 69.3281 45.1172 69.3281C44.3568 69.3281 43.7552 69.5833 43.3125 70.0938C42.875 70.599 42.6562 71.2656 42.6562 72.0938ZM50.0859 73.7266H51.5312C51.5312 74.1276 51.6719 74.4427 51.9531 74.6719C52.2396 74.8958 52.6302 75.0078 53.125 75.0078C53.651 75.0078 54.0599 74.9062 54.3516 74.7031C54.6432 74.5 54.7891 74.2188 54.7891 73.8594C54.7891 73.5833 54.7083 73.3646 54.5469 73.2031C54.3906 73.0365 54.1146 72.901 53.7188 72.7969L52.3438 72.4766C51.6458 72.3099 51.1302 72.0495 50.7969 71.6953C50.4635 71.3411 50.2969 70.8776 50.2969 70.3047C50.2969 69.5911 50.5703 69.0208 51.1172 68.5938C51.6641 68.1667 52.3724 67.9531 53.2422 67.9531C54.0964 67.9531 54.7812 68.1745 55.2969 68.6172C55.8177 69.0599 56.0859 69.6536 56.1016 70.3984H54.6641C54.6484 70.0026 54.513 69.6901 54.2578 69.4609C54.0026 69.2318 53.6484 69.1172 53.1953 69.1172C52.7266 69.1172 52.362 69.2188 52.1016 69.4219C51.8464 69.6198 51.7188 69.8984 51.7188 70.2578C51.7188 70.7734 52.1042 71.1302 52.875 71.3281L54.25 71.6641C54.9271 71.8255 55.4271 72.0729 55.75 72.4062C56.0729 72.7344 56.2344 73.1849 56.2344 73.7578C56.2344 74.4974 55.9453 75.0885 55.3672 75.5312C54.7891 75.974 54.0312 76.1953 53.0938 76.1953C52.1771 76.1953 51.4453 75.9714 50.8984 75.5234C50.3568 75.0703 50.0859 74.4714 50.0859 73.7266ZM63.3047 68.1797H64.7969V76H63.4531L63.2891 74.8125C63.0651 75.224 62.7109 75.5573 62.2266 75.8125C61.7474 76.0677 61.224 76.1953 60.6562 76.1953C59.7552 76.1953 59.0547 75.9141 58.5547 75.3516C58.0547 74.7839 57.8047 74.013 57.8047 73.0391V68.1797H59.3047V72.5469C59.3047 74.0938 59.9297 74.8672 61.1797 74.8672C61.8672 74.8672 62.3932 74.651 62.7578 74.2188C63.1224 73.7812 63.3047 73.1432 63.3047 72.3047V68.1797ZM68.4844 76H66.9766V68.1797H68.3203L68.4688 69.2031C68.6771 68.8229 68.9844 68.5208 69.3906 68.2969C69.7969 68.0677 70.2682 67.9531 70.8047 67.9531C71.4036 67.9531 71.9141 68.0938 72.3359 68.375C72.763 68.651 73.0781 69.0391 73.2812 69.5391C73.4635 69.0495 73.7786 68.6641 74.2266 68.3828C74.6797 68.0964 75.2083 67.9531 75.8125 67.9531C76.7031 67.9531 77.4036 68.2161 77.9141 68.7422C78.4297 69.263 78.6875 69.9766 78.6875 70.8828V76H77.2188V71.25C77.2188 70.6406 77.0625 70.1667 76.75 69.8281C76.4375 69.4844 76.013 69.3125 75.4766 69.3125C74.9089 69.3125 74.4505 69.5 74.1016 69.875C73.7578 70.2448 73.5859 70.7396 73.5859 71.3594V76H72.1016V71.2344C72.1016 70.625 71.9453 70.1562 71.6328 69.8281C71.3255 69.4948 70.9036 69.3281 70.3672 69.3281C69.7995 69.3281 69.3438 69.513 69 69.8828C68.6562 70.2474 68.4844 70.7396 68.4844 71.3594V76Z" fill="#111111"/>
</svg>
