<svg width="129" height="48" viewBox="0 0 129 48" fill="none" xmlns="http://www.w3.org/2000/svg">
<path d="M9.36 32.24C3.768 32.24 0.48 28.976 0.48 23.96C0.48 18.944 3.768 15.68 9.36 15.68C14.76 15.68 18 18.248 18 22.544V22.952H12.96V22.544C12.96 20.72 12.096 20 9.432 20C6.168 20 5.28 20.768 5.28 23.96C5.28 27.152 6.168 27.92 9.432 27.92C12.096 27.92 12.96 27.2 12.96 25.376V24.968H18V25.376C18 29.672 14.76 32.24 9.36 32.24ZM23.1008 32.24C20.3648 32.24 18.8288 30.992 18.8288 28.928C18.8288 27.224 20.0048 26 22.7408 25.736L27.6608 25.256V25.016C27.6608 23.792 27.1328 23.6 25.5247 23.6C24.0368 23.6 23.5808 23.888 23.5808 24.896V24.992H19.0688V24.944C19.0688 21.728 21.7568 19.664 25.8608 19.664C30.0848 19.664 32.1248 21.728 32.1248 25.112V32H27.9008V29.456H27.6608C27.2048 31.16 25.7168 32.24 23.1008 32.24ZM23.3648 28.64C23.3648 29.024 23.7488 29.096 24.4448 29.096C26.6288 29.096 27.5168 28.832 27.6368 27.752L23.9408 28.184C23.5328 28.232 23.3648 28.376 23.3648 28.64ZM39.9662 32.24C35.6942 32.24 33.4142 30.584 33.4142 27.8V27.704H37.9262V27.944C37.9262 28.616 38.3582 28.688 39.9902 28.688C41.5502 28.688 41.7902 28.52 41.7902 28.112C41.7902 27.728 41.5982 27.632 40.4702 27.512L36.9662 27.128C34.4702 26.864 33.1262 25.688 33.1262 23.648C33.1262 21.512 34.8302 19.664 39.3662 19.664C43.5662 19.664 45.7982 21.176 45.7982 24.152V24.248H41.2862V24.104C41.2862 23.48 41.0462 23.192 39.2222 23.192C37.7582 23.192 37.5662 23.384 37.5662 23.84C37.5662 24.176 37.7582 24.344 39.1742 24.488L41.5742 24.752C45.1022 25.136 46.2302 26.312 46.2302 28.352C46.2302 30.608 43.9742 32.24 39.9662 32.24ZM51.8258 32H47.3138V15.92H51.8258V23.576H52.0658C52.4498 21.536 53.7938 19.664 56.8898 19.664C60.1058 19.664 61.6418 21.704 61.6418 24.392V32H57.1298V25.904C57.1298 24.224 56.4818 23.696 54.4178 23.696C52.3298 23.696 51.8258 24.2 51.8258 25.76V32ZM74.745 32H66.609V15.92H74.745C80.049 15.92 83.409 18.872 83.409 23.96C83.409 29.048 80.049 32 74.745 32ZM74.745 19.976H71.121V27.944H74.745C77.601 27.944 78.585 27.584 78.585 23.96C78.585 20.336 77.601 19.976 74.745 19.976ZM89.1148 18.8H84.6028V15.92H89.1148V18.8ZM89.1148 32H84.6028V19.904H89.1148V32ZM95.0679 32H90.5559V19.904H94.7799V23.576H95.0199C95.2839 21.56 96.3879 19.664 99.4359 19.664C102.292 19.664 103.66 21.392 103.9 23.576H104.14C104.404 21.56 105.556 19.664 108.7 19.664C111.796 19.664 113.26 21.632 113.26 24.248V32H108.748V25.904C108.748 24.224 108.268 23.696 106.396 23.696C104.548 23.696 104.164 24.2 104.164 25.76V32H99.6519V25.904C99.6519 24.224 99.1719 23.696 97.2999 23.696C95.4519 23.696 95.0679 24.2 95.0679 25.76V32ZM121.347 32.24C117.243 32.24 114.363 30.488 114.363 25.952C114.363 22.016 117.219 19.664 121.251 19.664C125.427 19.664 128.091 21.752 128.091 25.64C128.091 26.048 128.067 26.36 128.019 26.792H118.539C118.611 28.256 119.259 28.664 121.179 28.664C123.003 28.664 123.483 28.352 123.483 27.632V27.368H127.995V27.656C127.995 30.344 125.427 32.24 121.347 32.24ZM121.155 23.12C119.499 23.12 118.803 23.48 118.611 24.512H123.723C123.555 23.48 122.835 23.12 121.155 23.12Z" fill="url(#paint0_linear_2461_834)"/>
<defs>
<linearGradient id="paint0_linear_2461_834" x1="2.25524" y1="26.0455" x2="119.534" y2="59.8792" gradientUnits="userSpaceOnUse">
<stop stop-color="#AA3CDD"/>
<stop offset="1" stop-color="#500C6A"/>
</linearGradient>
</defs>
</svg>
