<svg width="16" height="16" viewBox="0 0 16 16" fill="none" xmlns="http://www.w3.org/2000/svg">
<g clip-path="url(#clip0_3047_5169)">
<path d="M1.33333 3.66667V2.662C1.33455 2.48692 1.4046 2.31934 1.52834 2.19548C1.65208 2.07161 1.81959 2.0014 1.99467 2H14.0053C14.3707 2 14.6667 2.29667 14.6667 2.662V13.338C14.6654 13.5131 14.5954 13.6807 14.4717 13.8045C14.3479 13.9284 14.1804 13.9986 14.0053 14H1.99467C1.81921 13.9998 1.651 13.93 1.52699 13.8059C1.40299 13.6817 1.33333 13.5135 1.33333 13.338V12.6667H13.3333V4.86667L8 9.66667L1.33333 3.66667ZM0 6.66667H3.33333V8H0V6.66667ZM0 10H5.33333V11.3333H0V10Z" fill="#FAFAFA"/>
</g>
<defs>
<clipPath id="clip0_3047_5169">
<rect width="16" height="16" fill="white"/>
</clipPath>
</defs>
</svg>
