<svg width="44" height="44" viewBox="0 0 44 44" fill="none" xmlns="http://www.w3.org/2000/svg">
<rect width="44" height="44" rx="22" fill="#F5FCF2"/>
<g clip-path="url(#clip0_2951_4265)">
<path d="M19 11V13H25V11H27V13H31C31.2652 13 31.5196 13.1054 31.7071 13.2929C31.8946 13.4804 32 13.7348 32 14V30C32 30.2652 31.8946 30.5196 31.7071 30.7071C31.5196 30.8946 31.2652 31 31 31H13C12.7348 31 12.4804 30.8946 12.2929 30.7071C12.1054 30.5196 12 30.2652 12 30V14C12 13.7348 12.1054 13.4804 12.2929 13.2929C12.4804 13.1054 12.7348 13 13 13H17V11H19ZM30 20H14V29H30V20ZM25.036 21.136L26.45 22.55L21.5 27.5L17.964 23.964L19.38 22.55L21.501 24.672L25.037 21.136H25.036ZM17 15H14V18H30V15H27V16H25V15H19V16H17V15Z" fill="#399320"/>
</g>
<defs>
<clipPath id="clip0_2951_4265">
<rect width="24" height="24" fill="white" transform="translate(10 10)"/>
</clipPath>
</defs>
</svg>
