<svg width="44" height="45" viewBox="0 0 44 45" fill="none" xmlns="http://www.w3.org/2000/svg">
<rect y="0.5" width="44" height="44" rx="22" fill="#FFF5F5"/>
<g clip-path="url(#clip0_2596_1166)">
<path d="M30 32.5H14C13.7348 32.5 13.4804 32.3946 13.2929 32.2071C13.1054 32.0196 13 31.7652 13 31.5V13.5C13 13.2348 13.1054 12.9804 13.2929 12.7929C13.4804 12.6054 13.7348 12.5 14 12.5H30C30.2652 12.5 30.5196 12.6054 30.7071 12.7929C30.8946 12.9804 31 13.2348 31 13.5V31.5C31 31.7652 30.8946 32.0196 30.7071 32.2071C30.5196 32.3946 30.2652 32.5 30 32.5ZM29 30.5V14.5H15V30.5H29ZM18 19.5H26V21.5H18V19.5ZM18 23.5H26V25.5H18V23.5Z" fill="#FF5555"/>
</g>
<defs>
<clipPath id="clip0_2596_1166">
<rect width="24" height="24" fill="white" transform="translate(10 10.5)"/>
</clipPath>
</defs>
</svg>
