<svg width="40" height="40" viewBox="0 0 40 40" fill="none" xmlns="http://www.w3.org/2000/svg">
<rect width="40" height="40" rx="8" fill="#E7F9E2"/>
<g clip-path="url(#clip0_2842_3306)">
<path d="M30 14H23C21.4087 14 19.8826 14.6321 18.7574 15.7574C17.6321 16.8826 17 18.4087 17 20C17 21.5913 17.6321 23.1174 18.7574 24.2426C19.8826 25.3679 21.4087 26 23 26H30V28C30 28.2652 29.8946 28.5196 29.7071 28.7071C29.5196 28.8946 29.2652 29 29 29H11C10.7348 29 10.4804 28.8946 10.2929 28.7071C10.1054 28.5196 10 28.2652 10 28V12C10 11.7348 10.1054 11.4804 10.2929 11.2929C10.4804 11.1054 10.7348 11 11 11H29C29.2652 11 29.5196 11.1054 29.7071 11.2929C29.8946 11.4804 30 11.7348 30 12V14ZM23 16H31V24H23C21.9391 24 20.9217 23.5786 20.1716 22.8284C19.4214 22.0783 19 21.0609 19 20C19 18.9391 19.4214 17.9217 20.1716 17.1716C20.9217 16.4214 21.9391 16 23 16ZM23 19V21H26V19H23Z" fill="#399320"/>
</g>
<defs>
<clipPath id="clip0_2842_3306">
<rect width="24" height="24" fill="white" transform="translate(8 8)"/>
</clipPath>
</defs>
</svg>
