<svg width="17" height="16" viewBox="0 0 17 16" fill="none" xmlns="http://www.w3.org/2000/svg">
<g clip-path="url(#clip0_3047_5166)">
<path d="M14.5 10.9467V13.304C14.5001 13.4728 14.4361 13.6353 14.3211 13.7588C14.206 13.8823 14.0484 13.9575 13.88 13.9693C13.5887 13.9893 13.3507 14 13.1667 14C7.27533 14 2.5 9.22467 2.5 3.33333C2.5 3.14933 2.51 2.91133 2.53067 2.62C2.54248 2.45163 2.61772 2.29401 2.7412 2.17894C2.86468 2.06387 3.02722 1.99992 3.196 2H5.55333C5.63603 1.99992 5.7158 2.03057 5.77715 2.08601C5.83851 2.14145 5.87706 2.21772 5.88533 2.3C5.90067 2.45333 5.91467 2.57533 5.928 2.668C6.06049 3.59262 6.332 4.49189 6.73333 5.33533C6.79667 5.46867 6.75533 5.628 6.63533 5.71333L5.19667 6.74133C6.0763 8.79097 7.7097 10.4244 9.75933 11.304L10.786 9.868C10.828 9.80933 10.8892 9.76725 10.959 9.7491C11.0288 9.73095 11.1028 9.73787 11.168 9.76867C12.0113 10.1692 12.9104 10.4401 13.8347 10.572C13.9273 10.5853 14.0493 10.6 14.2013 10.6147C14.2835 10.6231 14.3596 10.6617 14.4149 10.7231C14.4702 10.7844 14.5008 10.8641 14.5007 10.9467H14.5Z" fill="#FAFAFA"/>
</g>
<defs>
<clipPath id="clip0_3047_5166">
<rect width="16" height="16" fill="white" transform="translate(0.5)"/>
</clipPath>
</defs>
</svg>
