<svg width="36" height="40" viewBox="0 0 36 40" fill="none" xmlns="http://www.w3.org/2000/svg">
<path d="M18.6098 23.2624L18.7082 23.3116C19.0281 23.4944 19.1898 23.8494 19.1898 24.3837C19.1898 24.918 19.0281 25.4628 18.7082 26.0147C18.3884 26.5701 17.9947 26.9813 17.5307 27.2485C17.0632 27.5191 16.6695 27.5613 16.3497 27.3785M18.6098 23.2624C18.3075 23.1394 17.949 23.1992 17.5307 23.4382C17.0632 23.7053 16.6695 24.1166 16.3497 24.672C16.0298 25.2238 15.8681 25.7686 15.8681 26.3029C15.8681 26.8372 16.0298 27.1957 16.3497 27.3785M18.6098 23.2624L15.5799 21.7474M16.3497 27.3785L13.0631 25.737M15.5799 21.7474C15.2424 22.4786 14.8698 23.1781 14.4726 23.8494C14.0754 24.5173 13.6044 25.15 13.0631 25.737M15.5799 21.7474C15.9841 20.8933 16.3426 19.997 16.666 19.0585C16.7152 18.9003 16.7785 18.7491 16.8523 18.6085M13.0631 25.737C12.4339 26.4189 11.7063 27.0481 10.8873 27.6175C10.8873 29.1185 11.0912 30.4014 11.4919 31.47M26.5819 18.6577L26.6803 18.707C27.0001 18.8897 27.1618 19.2483 27.1618 19.7826C27.1618 20.3168 27.0001 20.8617 26.6803 21.4135C26.3569 21.9689 25.9632 22.3801 25.4992 22.6473C25.0352 22.9144 24.6416 22.9601 24.3217 22.7738M26.5819 18.6577L26.1776 18.4539M26.5819 18.6577C26.4377 18.6015 26.2867 18.5839 26.1215 18.605M26.1776 18.4539L20.8629 15.7965M26.1776 18.4539C26.1601 18.5031 26.139 18.5558 26.1215 18.605M26.1776 18.4539L24.2022 17.4662M20.8629 15.7965L24.508 13.6946M20.8629 15.7965L24.2022 17.4662M20.8629 15.7965L17.8611 17.5294C17.594 17.6841 17.3585 17.8915 17.1476 18.1516C17.0351 18.2922 16.9367 18.4433 16.8523 18.6085M16.8523 18.6085C16.9156 18.9108 17.0632 19.1288 17.2917 19.2588L22.3111 21.7685M22.3111 21.7685L24.2268 22.7246M22.3111 21.7685C22.2268 21.9302 22.1353 22.0919 22.0404 22.2536C19.97 25.8389 17.4498 28.4857 14.4831 30.1976C13.4321 30.8057 12.4339 31.231 11.4919 31.47M24.2268 22.7246L24.3217 22.7738M24.2268 22.7246C24.2303 22.7211 24.2339 22.7176 24.2339 22.7141M24.3217 22.7738C24.2901 22.7563 24.262 22.7387 24.2339 22.7141M30.3324 5.01953L30.3499 5.02656L30.3851 5.04414C30.5292 5.10389 30.6663 5.17068 30.8034 5.25152L30.9123 5.30776C32.1075 5.98967 33.0565 7.05472 33.7525 8.50642C34.452 9.95812 34.7999 11.7684 34.7999 13.8492C34.7999 15.9301 34.452 18.1024 33.7525 20.359C33.0565 22.6157 32.1075 24.7844 30.9123 26.8583C29.7172 28.9322 28.3112 30.8373 26.6943 32.5702C25.0774 34.3031 23.3516 35.702 21.5132 36.7636C19.6995 37.811 17.9841 38.4016 16.3672 38.5351C14.7503 38.6687 13.3373 38.391 12.1316 37.7021M30.3324 5.01953C29.2673 4.54852 28.0582 4.37277 26.6943 4.48173C26.6205 4.48876 26.5467 4.49579 26.4694 4.50634C24.9193 4.67154 23.2672 5.26207 21.5132 6.27439C19.6995 7.32186 17.9841 8.71381 16.3672 10.4467C16.1282 10.7033 15.8962 10.9599 15.6677 11.2235C14.3391 12.742 13.1615 14.387 12.1316 16.1516C11.3759 17.4486 10.7186 18.7808 10.1632 20.1517H10.1597C9.83282 20.9707 9.53756 21.8002 9.27745 22.6403C9.18255 22.9461 9.09467 23.2519 9.01383 23.5542C8.49009 25.4874 8.22998 27.3645 8.22998 29.1888C8.22998 30.0288 8.28622 30.8127 8.3987 31.5473C8.56742 32.6405 8.85916 33.6212 9.27745 34.4929C9.36181 34.6651 9.44969 34.8339 9.54108 34.9991C10.2054 36.1941 11.0701 37.0975 12.1316 37.7021M30.3324 5.01953L23.8823 1.7927C22.6872 1.11079 21.2812 0.836616 19.6643 0.966671C18.0474 1.10024 16.3215 1.69779 14.4832 2.75933C12.6694 3.80682 10.9541 5.19876 9.33721 6.93166C7.7203 8.66456 6.30727 10.5662 5.10162 12.6365C3.89597 14.7034 2.94339 16.8651 2.24742 19.1252C1.54793 21.3819 1.19995 23.5893 1.19995 25.6737C1.19995 27.7581 1.54793 29.5226 2.24742 30.9779C2.94339 32.4296 3.89597 33.4981 5.10162 34.1871L12.1316 37.7021M11.4919 31.47C11.8715 32.4858 12.4374 33.3084 13.1826 33.927C13.4322 34.1414 13.6993 34.3277 13.9911 34.4929C16.0614 35.6739 18.5711 35.4138 21.5132 33.7126C24.4799 32.0008 27.0001 29.3539 29.0705 25.7686C31.1408 22.1869 32.1637 18.6964 32.1426 15.308C30.5714 16.0356 29.3622 16.1656 28.5221 15.7017M24.508 13.6946L24.986 13.9335M24.508 13.6946L25.2005 13.2939C25.443 13.1533 25.6715 13.09 25.8824 13.1076C26.0933 13.1287 26.2514 13.2447 26.3639 13.4591C26.6416 13.9371 26.9509 14.3589 27.2813 14.7139C27.661 15.1252 28.0757 15.4521 28.5221 15.7017M28.5221 15.7017L24.986 13.9335M24.986 13.9335C24.8454 15.1005 24.5853 16.2781 24.2022 17.4662M24.2339 22.7141C23.9702 22.5207 23.8402 22.1833 23.8402 21.7017C23.8402 21.1675 23.9984 20.6226 24.3217 20.0708C24.6416 19.5154 25.0353 19.1042 25.4993 18.837C25.7243 18.707 25.9317 18.6296 26.1215 18.605" stroke="#500C6A"/>
</svg>
