<svg width="70" height="76" viewBox="0 0 70 76" fill="none" xmlns="http://www.w3.org/2000/svg">
<rect y="0.689453" width="70" height="74.62" rx="35" fill="#F7ECFC"/>
<path d="M53.4633 24.9643C52.6569 23.2801 51.5606 22.0369 50.1704 21.2473L49.5657 20.9449C48.3141 20.3779 46.8861 20.1553 45.2733 20.2939C45.1305 20.3065 44.9877 20.3191 44.8449 20.3359C43.0893 20.5543 41.2286 21.2305 39.2546 22.3687C37.1504 23.5867 35.1554 25.2037 33.278 27.2155C31.9928 28.5931 30.8169 30.0673 29.7585 31.6297C29.2671 32.3479 28.8051 33.0829 28.3641 33.8347C27.5577 35.2165 26.852 36.6361 26.243 38.0893C25.7894 39.1645 25.3905 40.2565 25.0461 41.3695C24.9243 41.7685 24.8109 42.1633 24.7059 42.5581C24.1221 44.7589 23.8323 46.9009 23.8323 48.9757C23.8323 49.9249 23.8954 50.8153 24.0214 51.6469C24.2104 52.9447 24.5547 54.1039 25.0461 55.1329C25.1217 55.2883 25.1973 55.4395 25.2771 55.5865C26.0625 57.0438 27.0915 58.1358 28.3641 58.8582C29.7627 59.6562 31.4048 59.9838 33.278 59.8242C35.1554 59.673 37.1504 58.9884 39.2546 57.7704C41.3882 56.5357 43.3959 54.9187 45.2733 52.9027C47.1507 50.8909 48.7802 48.6775 50.1704 46.2709C51.5606 43.8601 52.6569 41.3443 53.4633 38.7235C54.2781 36.1069 54.6771 33.5827 54.6771 31.1635C54.6771 28.7443 54.2781 26.6485 53.4633 24.9643ZM48.0117 45.0403C45.6177 49.1773 42.6986 52.2433 39.2546 54.2299C35.8358 56.2039 32.9253 56.5063 30.5187 55.1329C30.1155 54.9019 29.7459 54.6373 29.4099 54.3307C28.5867 53.5915 27.9651 52.6339 27.5577 51.4579C27.1293 50.2609 26.9151 48.8413 26.9151 47.1949C26.9151 46.0819 27.0075 44.9647 27.2007 43.8433C27.3057 43.2175 27.44 42.5917 27.6038 41.9617L31.3125 39.8071L34.8993 37.7239L40.5357 34.4479L42.6903 33.1963L45.8529 31.3609L50.8845 28.4377C51.3591 29.6851 51.5943 31.1845 51.5943 32.9443C51.5943 36.8671 50.4015 40.8991 48.0117 45.0403Z" stroke="#500C6A" stroke-width="1.25"/>
<path d="M35.8821 42.0934C35.5335 41.9506 35.1136 42.022 34.6264 42.2992C34.0888 42.61 33.6352 43.0888 33.2614 43.7314C32.8876 44.374 32.7027 45.0082 32.7027 45.6256C32.7027 46.243 32.8876 46.663 33.2614 46.873L27.2007 43.8448C27.3057 43.219 27.44 42.5932 27.6038 41.9632L31.3125 39.8086L35.8821 42.0934Z" stroke="#500C6A" stroke-width="1.25"/>
<path d="M45.8067 38.0561C45.8067 38.6735 45.6219 39.3076 45.2481 39.9502C44.8743 40.5928 44.4207 41.0717 43.8789 41.3825C43.3413 41.6933 42.8835 41.7394 42.5097 41.5294C42.3921 41.4622 42.2913 41.374 42.2157 41.2648C42.0393 41.0296 41.9512 40.7021 41.9512 40.2821C41.9512 39.6647 42.1359 39.0305 42.5097 38.3879C42.8835 37.7453 43.3413 37.2665 43.8789 36.9557C44.0217 36.8759 44.1562 36.8129 44.2864 36.7667C44.6014 36.6533 44.8827 36.649 45.1305 36.7498L45.2481 36.8086C45.6219 37.0228 45.8067 37.4387 45.8067 38.0561Z" stroke="#500C6A" stroke-width="1.25"/>
<path d="M36.5583 43.3994C36.5583 44.0168 36.3692 44.651 35.9996 45.2936C35.6258 45.9362 35.1681 46.415 34.6263 46.7258C34.0887 47.0366 33.6351 47.087 33.2613 46.8728C32.8875 46.6628 32.7027 46.2428 32.7027 45.6254C32.7027 45.008 32.8875 44.3738 33.2613 43.7312C33.6351 43.0886 34.0887 42.6098 34.6263 42.299C35.1135 42.0218 35.5335 41.9504 35.8821 42.0932L35.9996 42.152C36.3692 42.3662 36.5583 42.782 36.5583 43.3994Z" stroke="#500C6A" stroke-width="1.25"/>
<path d="M44.4248 36.3961C44.3828 36.5221 44.3367 36.6439 44.2863 36.7657C44.1561 36.8119 44.0216 36.8749 43.8788 36.9547C43.3412 37.2655 42.8834 37.7443 42.5096 38.3869C42.1358 39.0295 41.951 39.6637 41.951 40.2811C41.951 40.7011 42.0392 41.0287 42.2156 41.2639C42.203 41.2933 42.1863 41.3227 42.1653 41.3563L39.9392 40.2433L34.895 37.7233L40.5314 34.4473L42.1274 35.2453L44.4248 36.3961Z" stroke="#500C6A" stroke-width="1.25"/>
<path d="M51.5899 32.9441C51.5899 36.8669 50.3971 40.8989 48.0073 45.0401C45.6133 49.1771 42.6943 52.2431 39.2503 54.2297C35.8315 56.2037 32.921 56.5061 30.5144 55.1327C30.1112 54.9017 29.7415 54.6371 29.4055 54.3305C28.5823 53.5913 27.9607 52.6337 27.5533 51.4577C28.5949 51.1763 29.6911 50.6975 30.8503 50.0297C34.2943 48.0431 37.2133 44.9771 39.6073 40.8401C39.7207 40.6427 39.8341 40.4411 39.9391 40.2437L42.1652 41.3567L42.5095 41.5289C42.8833 41.7389 43.3411 41.6927 43.8787 41.3819C44.4205 41.0711 44.8741 40.5923 45.2479 39.9497C45.6217 39.3071 45.8065 38.6729 45.8065 38.0555C45.8065 37.4381 45.6217 37.0223 45.2479 36.8081L45.1303 36.7493L44.4247 36.3965L42.1273 35.2457C42.3499 34.5569 42.5347 33.8765 42.6859 33.1961L45.8486 31.3607L50.8802 28.4375C51.3548 29.6849 51.5899 31.1843 51.5899 32.9441Z" stroke="#500C6A" stroke-width="1.25"/>
<path d="M49.5614 20.9453C48.3098 20.3783 46.8818 20.1557 45.269 20.2943C45.1262 20.3069 44.9834 20.3195 44.8406 20.3363C43.085 20.5547 41.2244 21.2309 39.2504 22.3691C37.1462 23.5871 35.1512 25.2041 33.2738 27.2159C31.9886 28.5935 30.8126 30.0677 29.7542 31.6301C29.2628 32.3483 28.8008 33.0833 28.3598 33.8351C27.5534 35.2169 26.8478 36.6365 26.2388 38.0897C25.7852 39.1649 25.3862 40.2569 25.0418 41.3699C24.92 41.7689 24.8066 42.1637 24.7016 42.5585C24.1178 44.7593 23.828 46.9013 23.828 48.9761C23.828 49.9253 23.8911 50.8157 24.0171 51.6473C24.2061 52.9451 24.5504 54.1043 25.0418 55.1333C25.1174 55.2887 25.1931 55.4399 25.2729 55.5869C26.0583 57.0442 27.0872 58.1362 28.3598 58.8586L20.6276 54.9905L19.9598 54.6587C18.557 53.8607 17.4524 52.6175 16.6418 50.9333C15.8312 49.2449 15.428 47.1953 15.428 44.7761C15.428 42.3569 15.8312 39.7907 16.6418 37.1699C17.4524 34.5533 18.557 32.0417 19.9598 29.6351C21.3584 27.2369 23.0006 25.0277 24.8738 23.0159C26.7512 21.0041 28.7462 19.3871 30.8504 18.1691C32.984 16.9385 34.9916 16.2455 36.869 16.0943C38.7464 15.9347 40.3761 16.2581 41.7663 17.0477L49.5614 20.9453Z" stroke="#500C6A" stroke-width="1.25"/>
<path d="M35.9995 42.1506L35.882 42.0918" stroke="#500C6A" stroke-width="1.25"/>
</svg>
