<svg width="73" height="72" viewBox="0 0 73 72" fill="none" xmlns="http://www.w3.org/2000/svg">
<rect x="0.666718" width="72" height="72" rx="36" fill="#F7ECFC"/>
<g clip-path="url(#clip0_2700_3463)">
<path fill-rule="evenodd" clip-rule="evenodd" d="M109.767 25.6469L109.352 23.6751H103.582V47.0556H110.248V31.1881C111.826 29.1256 114.486 29.5271 115.333 29.7897V23.6779C114.445 23.3589 111.328 22.7731 109.767 25.6441V25.6469ZM96.3885 17.8836L89.8765 19.2669L89.849 40.6646C89.849 44.6109 92.8162 47.53 96.7762 47.53C98.9556 47.53 100.566 47.1147 101.458 46.6459V41.2146C100.603 41.5556 96.394 42.7794 96.394 38.8496V29.3621H101.458V23.6737H96.394L96.3885 17.8836ZM78.3292 30.4594C78.3292 29.4171 79.1955 29.0156 80.5952 29.0156C82.9123 29.0658 85.186 29.6542 87.2365 30.7344V24.4506C85.1221 23.6193 82.867 23.2047 80.5952 23.2296C75.1997 23.2296 71.5793 26.0566 71.5793 30.7756C71.5793 38.1594 81.72 36.9604 81.72 40.1435C81.72 41.3892 80.6475 41.7742 79.1583 41.7742C76.9501 41.7742 74.0983 40.8612 71.8612 39.643V46.0092C74.1642 47.0109 76.647 47.5335 79.1583 47.5451C84.7037 47.5451 88.5262 44.8061 88.5262 40.0032C88.5262 32.0337 78.3278 33.4582 78.3278 30.4566L78.3292 30.4594ZM33.7517 27.0837C33.7517 25.2 35.3192 24.4712 37.852 24.4712C42.0438 24.5618 46.1571 25.6261 49.8667 27.5801V16.2089C46.0415 14.7056 41.9617 13.9562 37.852 14.002C28.0895 14.002 21.5417 19.1156 21.5417 27.6544C21.5417 41.0139 39.887 38.8441 39.887 44.6026C39.887 46.8549 37.962 47.5534 35.2532 47.5534C31.2588 47.5534 26.0998 45.9006 22.0532 43.7006V55.2204C26.2195 57.0331 30.7111 57.9791 35.2546 58.0006C45.288 58.0006 52.2042 53.0437 52.2042 44.3565C52.2042 29.9382 33.7517 32.5136 33.7517 27.0865V27.0837Z" fill="#500C6A"/>
</g>
<defs>
<clipPath id="clip0_2700_3463">
<rect width="44" height="44" fill="white" transform="translate(14.6667 14)"/>
</clipPath>
</defs>
</svg>
