<svg width="16" height="16" viewBox="0 0 16 16" fill="none" xmlns="http://www.w3.org/2000/svg">
<g clip-path="url(#clip0_3047_5162)">
<path d="M2.93125 3.58125C2.78438 3.61562 2.87812 3.60938 2.75625 3.625C2.23438 3.7375 2.62188 3.8375 2.93125 3.58125ZM12.1094 3.79063C12.1469 3.76562 12.2781 3.6375 11.8687 3.5125C11.8937 3.64062 11.7844 3.62812 11.7844 3.7C12.0875 3.975 12.2125 4.45312 12.6 4.55312C12.675 4.20937 12.2563 4.04063 12.1094 3.79063ZM2.65313 3.48125C2.7 3.75938 2.90937 3.1875 2.9125 2.98438C2.83125 3.03125 2.75 3.07812 2.66563 3.11562C2.8625 3.21562 2.69063 3.32188 2.47813 3.48125C2.04688 4.01875 2.88125 3.0625 2.65313 3.48125ZM8 0C3.58125 0 0 3.58125 0 8C0 12.4156 3.58125 16 8 16C12.4187 16 16 12.4156 16 8C16 3.58125 12.4187 0 8 0ZM8.2125 2.68125L8.25 2.69375C8.1 2.8875 9.03125 3.45312 8.3625 3.5C7.7375 3.67812 8.625 3.3375 8.14062 3.39687C8.39688 3.04062 7.9375 3.03438 8.2125 2.68125ZM4.41875 3.19375C4.19375 3.00625 3.4875 3.45 3.73438 3.34375C4.34688 3.10313 3.775 3.36875 3.91875 3.65625C3.7875 3.92812 3.875 3.3875 3.55 3.70937C3.31562 3.7625 2.74062 4.29375 2.8125 4.13125C2.79375 4.38438 2.12812 4.68437 2.0375 5.10625C1.81875 5.69062 1.98438 5.08437 1.94375 4.85625C1.63125 4.45937 1.0625 5.52812 1.23125 5.95C1.51562 5.45 1.49375 5.89687 1.2875 6.11875C1.49688 6.50313 1.09687 7.00312 1.49375 7.2875C1.66875 7.32812 2.01875 6.7 1.86563 7.35313C1.97188 6.7875 2.15938 7.4875 2.4625 7.33125C2.48125 7.62813 2.66562 7.49062 2.70625 7.85C3.2125 7.8125 3.675 8.66875 3.07188 8.83125C3.1625 8.80625 3.34063 8.96562 3.54688 8.84375C3.89687 9.12187 4.81875 9.15625 4.84375 9.84375C4.20937 10.1469 4.6875 10.9781 4.1375 11.275C3.50625 11.1812 3.92188 12.0531 3.65625 11.9531C3.7625 12.5813 3.01875 11.8719 3.30625 12.2188C3.83438 12.5437 3.075 12.4781 3.3125 12.7156C3.04688 12.6594 3.47812 13.2094 3.55 13.4125C3.93125 14.0312 3.22187 13.275 3.0125 13.0688C2.8125 12.6688 2.34062 11.9031 2.20937 11.275C2.13437 10.3625 1.42813 9.75 1.26562 8.85938C1.10312 8.3625 1.7125 7.56562 1.38437 7.2875C1.1 7.06562 1.21563 6.30625 1.04688 5.90625C1.46875 4.07812 2.80937 2.5375 4.41875 1.625C4.25312 1.74688 5.36563 1.30937 5.2375 1.41562C5.20312 1.49375 5.8875 1.11875 6.3 1.0625C6.25625 1.06875 5.22812 1.4375 5.5125 1.3875C5.07187 1.60313 5.46875 1.48125 5.6875 1.37188C5.25 1.69375 4.9125 1.60313 4.41563 1.8875C3.91563 2.01875 4.01875 2.5375 3.6625 2.79688C3.87187 2.83437 4.39687 2.25625 4.70312 2.05312C5.40625 1.7125 4.34688 2.67188 5.01562 2.25938C4.79063 2.46875 4.8375 2.80312 4.7 2.89687C4.63125 2.87812 4.97187 3.05937 4.41875 3.19375ZM5.5125 1.75625C5.44062 1.85312 5.34062 2.0625 5.28125 1.93438C5.2 1.975 5.16875 2.15 5.01562 2.00938C5.10625 1.94375 5.2 1.7875 5.02187 1.88437C5.10313 1.79688 5.82812 1.55 5.7875 1.45625C5.91563 1.375 5.90312 1.33438 5.75625 1.38437C5.68125 1.35938 5.93437 1.14688 6.27187 1.11875C6.31875 1.11875 6.3375 1.15 6.25313 1.14062C5.74375 1.29688 5.9625 1.25312 6.30625 1.14062C6.175 1.21563 6.08437 1.2375 6.0625 1.27188C6.40625 1.14688 6.04375 1.3625 6.12187 1.34687C6.025 1.39687 6.1375 1.4125 5.95 1.48438C5.98438 1.45625 5.64375 1.6875 5.84688 1.61875C5.65 1.80625 5.5625 1.80938 5.5125 1.75625ZM5.8125 2.20312C5.81875 1.90313 6.25 1.7125 6.19688 1.69687C6.72813 1.44687 6.0125 1.70625 6.43125 1.48125C6.5875 1.46563 6.91875 0.965625 7.37813 0.934375C7.88438 0.78125 7.65 0.94375 8.025 0.8L7.95 0.8625C7.88437 0.871875 7.96563 0.9875 7.72813 1.1625C7.70312 1.43438 7.275 1.30938 7.4875 1.6C7.35 1.40313 7.14375 1.59375 7.40312 1.6125C7.125 1.825 6.47812 1.8625 6.16875 2.21563C5.96875 2.50312 5.78438 2.4125 5.8125 2.20312ZM8.03438 3.20312C7.82188 3.71563 7.61562 3.12812 7.99062 3.03437C8.08438 3.08437 8.12187 3.1 8.03438 3.20312ZM7.23438 2.17812C7.17188 1.94687 7.22188 2.06875 7.59375 1.95938C7.85 2.14375 7.36562 2.26562 7.23438 2.17812ZM13.0531 11.35C12.7594 10.8438 13.4094 10.375 13.6281 9.95C13.6 10.4469 13.5375 10.9375 13.0531 11.35ZM14.1594 5.56563C13.8406 5.59063 13.5531 5.66563 13.2656 5.48438C12.6031 4.75938 13.3875 6.30312 13.6062 5.67188C14.3938 5.97188 13.5938 7.26562 13.0969 7.13125C12.8188 6.53125 12.475 5.87187 11.8687 5.57812C12.3344 6.09375 12.5656 6.72813 13.0656 7.19375C13.1 7.84375 13.7594 6.95625 13.7188 7.45937C13.7812 8.325 12.7406 8.84375 12.9219 9.7125C13.3094 10.5031 12.175 10.6469 12.3031 11.3562C11.8469 11.8656 11.3594 12.5531 10.5406 12.4438C10.5406 12.0125 10.3219 11.6469 10.2719 11.2031C9.82812 10.6406 10.7406 10.0375 10.175 9.45C9.52188 9.30312 10.3094 8.40312 9.6375 8.4875C9.23438 8.08438 8.64375 8.475 8.06563 8.47812C7.34063 8.54688 6.59375 7.5875 6.91563 6.90938C6.65938 6.20312 7.72813 5.99687 7.75625 5.375C8.26875 4.94688 8.99687 5 9.69063 4.9C9.64062 5.39687 10.1656 5.4 10.5625 5.56563C10.7844 5.02813 11.475 5.65312 11.9469 5.3125C12.1094 4.51875 11.4875 4.99688 11.1313 4.74375C10.7 4.1125 12.0531 4.41875 11.9125 4.0875C11.3875 4.08437 11.6844 3.44062 11.3125 3.8C11.6469 3.85938 11.2531 4.12188 11.2625 3.82188C10.7562 3.675 11.2438 4.39687 10.9875 4.46562C10.5969 4.30312 10.7812 4.65 10.8219 4.70312C10.6531 5.06875 10.4469 4.16563 9.96875 4.19063C9.49375 3.75625 9.78125 4.3875 10.1938 4.49062C10.1063 4.51562 10.2437 4.875 10.1344 4.72188C9.79375 4.25313 9.14687 3.94062 8.7625 4.51562C8.72188 5.05312 7.62812 5.20625 7.80312 4.57812C7.54688 3.92812 8.59688 4.55938 8.5 4.04063C7.825 3.59375 8.68438 3.7375 8.9125 3.31875C9.43125 3.33437 8.93438 2.89375 9.17813 2.76562C9.15313 3.24375 9.575 3.15313 9.90938 3.0625C9.82812 2.7875 10.1094 2.79688 9.9375 2.56875C10.7125 2.25937 9.34688 2.7125 9.62187 2.03437C9.2875 1.80312 9.48125 2.54375 9.62187 2.62188C9.63125 2.85 9.4375 3.13125 9.17188 2.65313C8.78438 2.90625 8.825 2.39688 8.8 2.45C8.75625 2.25312 9.09375 2.24375 9.09688 1.9C9.06875 1.68125 9.075 1.56563 9.23125 1.55313C9.24375 1.58438 9.87187 1.59375 10.0938 1.85312C9.4875 1.73125 10.0031 1.95312 10.275 2.07812C9.98438 1.85 10.3906 2.07812 10.1531 1.81875C10.2469 1.8375 9.89375 1.4625 10.2563 1.79062C10.0594 1.55625 10.6406 1.625 10.2969 1.45C10.8 1.59063 10.5031 1.4625 10.2063 1.33438C9.3875 0.846875 11.6531 1.99375 10.7281 1.48438C11.3187 1.6125 9.46562 1.02812 10.3094 1.28437C9.9875 1.14375 10.3 1.22187 10.5906 1.3125C10.0687 1.15 9.2875 0.846875 9.31875 0.834375C9.5 0.846875 9.67813 0.8875 9.85 0.9375C10.3844 1.09687 9.69687 0.9 9.84375 0.903125C11.6812 1.375 13.2906 2.60625 14.2688 4.21562C14.4969 4.45625 15.1187 6.04688 14.7937 5.34062C14.9406 5.90312 14.9625 6.50938 15.0406 7.08437C14.8781 6.90312 14.6969 6.23438 14.5406 5.8625C14.475 6.00625 14.4 5.65938 14.1594 5.56563Z" fill="#FAFAFA"/>
</g>
<defs>
<clipPath id="clip0_3047_5162">
<rect width="16" height="16" fill="white"/>
</clipPath>
</defs>
</svg>
