<svg width="32" height="33" viewBox="0 0 32 33" fill="none" xmlns="http://www.w3.org/2000/svg">
<path fill-rule="evenodd" clip-rule="evenodd" d="M21.4547 14.1762L15.1213 20.5042C14.9333 20.6922 14.68 20.7975 14.4147 20.7975C14.1493 20.7975 13.8947 20.6922 13.7067 20.5042L10.5453 17.3402C10.1547 16.9495 10.1547 16.3162 10.5453 15.9255C10.9373 15.5349 11.5707 15.5375 11.96 15.9255L14.4147 18.3829L20.04 12.7615C20.4307 12.3709 21.064 12.3722 21.4547 12.7615C21.8453 13.1522 21.8453 13.7855 21.4547 14.1762ZM16 3.63354C6.40267 3.63354 3 7.03621 3 16.6335C3 26.2309 6.40267 29.6335 16 29.6335C25.5973 29.6335 29 26.2309 29 16.6335C29 7.03621 25.5973 3.63354 16 3.63354Z" fill="url(#paint0_linear_2462_503)"/>
<defs>
<linearGradient id="paint0_linear_2462_503" x1="3.45455" y1="18.4063" x2="28.9447" y2="20.1164" gradientUnits="userSpaceOnUse">
<stop stop-color="#AA3CDD"/>
<stop offset="1" stop-color="#500C6A"/>
</linearGradient>
</defs>
</svg>
